<svg width="370" height="78" viewBox="0 0 370 78" fill="none" xmlns="http://www.w3.org/2000/svg">
<path d="M5.08804 34.5601H2.40004V5.72205e-05H5.08804V14.1121C6.57604 11.1361 9.07204 8.83206 13.536 8.83206C19.68 8.83206 22.752 13.0561 22.752 21.0241V22.9441C22.752 30.9121 19.68 35.1361 13.536 35.1361C9.07204 35.1361 6.57604 32.8321 5.08804 29.8561V34.5601ZM5.08804 23.7121C5.08804 28.1281 6.72004 32.9281 12.864 32.9281C19.008 32.9281 20.064 28.3201 20.064 22.9441V21.0241C20.064 15.6481 19.008 11.0401 12.864 11.0401C6.72004 11.0401 5.08804 15.8401 5.08804 20.2561V23.7121ZM23.3232 42.7201V40.5121H33.2112C34.4112 40.5121 35.0352 39.8401 35.5152 38.2081L26.1072 9.40806H28.7952L36.9072 34.6561L44.3952 9.40806H47.0832L37.7232 38.4961C36.9072 41.0881 35.6112 42.7201 33.1152 42.7201H23.3232ZM84.4602 34.5601H73.2282V5.72205e-05H84.4602C92.6202 5.72205e-05 96.9402 5.76006 96.9402 16.8001V17.7601C96.9402 28.8001 92.6202 34.5601 84.4602 34.5601ZM76.0122 32.3521H84.4602C91.1802 32.3521 94.0602 26.8801 94.0602 18.7201V15.8401C94.0602 7.68006 91.1802 2.20806 84.4602 2.20806H76.0122V32.3521ZM123.012 34.5601H120.324L119.7 28.9441C118.164 32.0641 115.524 35.1361 110.196 35.1361C106.452 35.1361 101.844 33.5041 101.844 27.7441C101.844 22.9441 103.284 20.4481 111.492 20.3521C118.692 20.2561 119.46 18.9121 119.46 16.1281C119.46 12.9601 116.676 11.0401 112.164 11.0401C107.604 11.0401 105.732 12.9121 105.252 16.1281L105.156 16.8001H102.468C103.092 12.1921 105.78 8.83206 112.164 8.83206C118.932 8.83206 122.148 11.8081 122.148 17.8561V29.4721C122.148 30.8161 122.676 34.2721 123.012 34.5601ZM111.156 32.9281C118.98 32.9281 119.46 26.4001 119.46 24.3841V20.3041C117.636 21.4561 115.476 21.6961 112.164 21.9841C107.172 22.4161 104.532 22.9441 104.532 27.6481C104.532 31.8721 107.508 32.9281 111.156 32.9281ZM131.369 34.5601H128.681V9.40806H131.369V13.1521C132.761 10.5121 135.017 8.83206 139.577 8.83206C145.625 8.83206 147.977 12.2881 147.977 18.0481V34.5601H145.289V19.5841C145.289 15.1681 145.049 11.0401 138.809 11.0401C131.609 11.0401 131.369 15.1681 131.369 19.5841V34.5601ZM157.104 34.5601H154.416V9.40806H157.104V34.5601ZM157.104 5.28006H154.416V5.72205e-05H157.104V5.28006ZM194.535 34.5601H191.847V29.8561C190.359 32.8321 187.863 35.1361 183.399 35.1361C177.255 35.1361 174.183 30.9121 174.183 22.9441V21.0241C174.183 13.0561 177.255 8.83206 183.399 8.83206C187.863 8.83206 190.359 11.1361 191.847 14.1121V5.72205e-05H194.535V34.5601ZM176.871 22.9441C176.871 28.3201 177.927 32.9281 184.071 32.9281C190.215 32.9281 191.847 28.1281 191.847 23.7121V20.2561C191.847 15.8401 190.215 11.0401 184.071 11.0401C177.927 11.0401 176.871 15.6481 176.871 21.0241V22.9441ZM201.185 10.8481L206.177 2.68806H202.433V5.72205e-05H208.001V2.88006L203.489 10.8481H201.185ZM215.259 34.5601V5.72205e-05H233.979V2.20806H218.043V16.1761H232.059V18.3841H218.043V32.3521H233.979V34.5601H215.259ZM240.635 34.5601H237.947V9.40806H240.635V13.0081C241.931 10.4161 243.995 8.83206 248.075 8.83206C252.011 8.83206 254.267 10.6561 255.179 13.8241C256.475 10.8001 258.635 8.83206 263.147 8.83206C268.571 8.83206 270.779 12.2881 270.779 18.0481V34.5601H268.091V19.5841C268.091 15.1681 267.995 11.0401 262.379 11.0401C255.803 11.0401 255.707 15.1681 255.707 19.5841V34.5601H253.019V19.5841C253.019 15.1681 252.923 11.0401 247.307 11.0401C240.731 11.0401 240.635 15.1681 240.635 19.5841V34.5601ZM279.916 34.5601H277.228V9.40806H279.916V34.5601ZM279.916 5.28006H277.228V5.72205e-05H279.916V5.28006ZM289.338 34.5601H286.65V5.72205e-05H289.338V34.5601ZM298.76 34.5601H296.072V9.40806H298.76V34.5601ZM298.76 5.28006H296.072V5.72205e-05H298.76V5.28006ZM325.606 34.5601H322.918L322.294 28.9441C320.758 32.0641 318.118 35.1361 312.79 35.1361C309.046 35.1361 304.438 33.5041 304.438 27.7441C304.438 22.9441 305.878 20.4481 314.086 20.3521C321.286 20.2561 322.054 18.9121 322.054 16.1281C322.054 12.9601 319.27 11.0401 314.758 11.0401C310.198 11.0401 308.326 12.9121 307.846 16.1281L307.75 16.8001H305.062C305.686 12.1921 308.374 8.83206 314.758 8.83206C321.526 8.83206 324.742 11.8081 324.742 17.8561V29.4721C324.742 30.8161 325.27 34.2721 325.606 34.5601ZM313.75 32.9281C321.574 32.9281 322.054 26.4001 322.054 24.3841V20.3041C320.23 21.4561 318.07 21.6961 314.758 21.9841C309.766 22.4161 307.126 22.9441 307.126 27.6481C307.126 31.8721 310.102 32.9281 313.75 32.9281ZM14.208 76.5601H10.752L3.91304e-05 42.0001H2.78404L12.48 73.7761L22.176 42.0001H24.96L14.208 76.5601ZM47.1683 76.5601H44.4803L43.8563 70.9441C42.3203 74.0641 39.6803 77.1361 34.3523 77.1361C30.6083 77.1361 26.0003 75.5041 26.0003 69.7441C26.0003 64.9441 27.4403 62.4481 35.6483 62.3521C42.8483 62.2561 43.6163 60.9121 43.6163 58.1281C43.6163 54.9601 40.8323 53.0401 36.3203 53.0401C31.7603 53.0401 29.8883 54.9121 29.4083 58.1281L29.3123 58.8001H26.6243C27.2483 54.1921 29.9363 50.8321 36.3203 50.8321C43.0883 50.8321 46.3043 53.8081 46.3043 59.8561V71.4721C46.3043 72.8161 46.8323 76.2721 47.1683 76.5601ZM35.3123 74.9281C43.1363 74.9281 43.6163 68.4001 43.6163 66.3841V62.3041C41.7923 63.4561 39.6323 63.6961 36.3203 63.9841C31.3283 64.4161 28.6883 64.9441 28.6883 69.6481C28.6883 73.8721 31.6643 74.9281 35.3123 74.9281ZM55.5255 76.5601H52.8375V51.4081H55.5255V55.1521C56.9175 52.5121 59.1735 50.8321 63.7335 50.8321C69.7815 50.8321 72.1335 54.2881 72.1335 60.0481V76.5601H69.4455V61.5841C69.4455 57.1681 69.2055 53.0401 62.9655 53.0401C55.7655 53.0401 55.5255 57.1681 55.5255 61.5841V76.5601ZM88.7479 77.1361C81.6919 77.1361 77.8039 72.6241 77.8039 63.9841C77.8039 55.3441 82.3159 50.8321 88.4599 50.8321C94.6039 50.8321 99.0199 55.3441 99.0199 64.0801H80.4919V64.4641C80.4919 70.7041 82.6039 74.9281 89.1319 74.9281C94.1239 74.9281 95.2759 72.9121 95.9479 70.8001H98.6359C97.7239 73.4881 95.6599 77.1361 88.7479 77.1361ZM96.2839 61.6801C95.7559 57.2641 93.6439 53.0401 88.4599 53.0401C83.5639 53.0401 80.8279 56.8801 80.5399 62.1601H96.3319L96.2839 61.6801ZM112.94 77.1361C105.884 77.1361 104.204 73.5841 103.628 70.1281H106.316C106.604 73.2001 108.476 75.3121 112.94 75.3121C118.124 75.3121 119.756 73.1041 119.756 70.1281C119.756 66.6721 117.932 65.3281 115.004 64.8481L110.924 64.1761C106.892 63.5041 104.108 61.9681 104.108 57.6481C104.108 53.6161 106.988 50.8321 112.94 50.8321C119.468 50.8321 121.532 54.1921 121.964 57.5521H119.276C118.988 55.0561 117.548 52.6561 112.7 52.6561C108.236 52.6561 106.7 54.5761 106.7 57.2641C106.7 60.1441 108.284 61.2481 110.828 61.6801L114.956 62.3521C119.948 63.1681 122.348 65.0401 122.348 69.8401C122.348 73.8721 119.852 77.1361 112.94 77.1361ZM136.471 77.1361C129.415 77.1361 127.735 73.5841 127.159 70.1281H129.847C130.135 73.2001 132.007 75.3121 136.471 75.3121C141.655 75.3121 143.287 73.1041 143.287 70.1281C143.287 66.6721 141.463 65.3281 138.535 64.8481L134.455 64.1761C130.423 63.5041 127.639 61.9681 127.639 57.6481C127.639 53.6161 130.519 50.8321 136.471 50.8321C142.999 50.8321 145.063 54.1921 145.495 57.5521H142.807C142.519 55.0561 141.079 52.6561 136.231 52.6561C131.767 52.6561 130.231 54.5761 130.231 57.2641C130.231 60.1441 131.815 61.2481 134.359 61.6801L138.487 62.3521C143.479 63.1681 145.879 65.0401 145.879 69.8401C145.879 73.8721 143.383 77.1361 136.471 77.1361ZM171.762 76.5601H169.074L168.45 70.9441C166.914 74.0641 164.274 77.1361 158.946 77.1361C155.202 77.1361 150.594 75.5041 150.594 69.7441C150.594 64.9441 152.034 62.4481 160.242 62.3521C167.442 62.2561 168.21 60.9121 168.21 58.1281C168.21 54.9601 165.426 53.0401 160.914 53.0401C156.354 53.0401 154.482 54.9121 154.002 58.1281L153.906 58.8001H151.218C151.842 54.1921 154.53 50.8321 160.914 50.8321C167.682 50.8321 170.898 53.8081 170.898 59.8561V71.4721C170.898 72.8161 171.426 76.2721 171.762 76.5601ZM159.906 74.9281C167.73 74.9281 168.21 68.4001 168.21 66.3841V62.3041C166.386 63.4561 164.226 63.6961 160.914 63.9841C155.922 64.4161 153.282 64.9441 153.282 69.6481C153.282 73.8721 156.258 74.9281 159.906 74.9281ZM211.393 76.5601H208.609L205.489 66.3841H192.337L189.217 76.5601H186.433L197.233 42.0001H200.593L211.393 76.5601ZM193.009 64.1761H204.817L198.913 44.7841L193.009 64.1761ZM218.885 76.5601H216.197V51.4081H218.885V55.1521C220.277 52.5121 222.533 50.8321 227.093 50.8321C233.141 50.8321 235.493 54.2881 235.493 60.0481V76.5601H232.805V61.5841C232.805 57.1681 232.565 53.0401 226.325 53.0401C219.125 53.0401 218.885 57.1681 218.885 61.5841V76.5601ZM261.707 76.5601H259.019V71.8561C257.531 74.8321 255.035 77.1361 250.571 77.1361C244.427 77.1361 241.355 72.9121 241.355 64.9441V63.0241C241.355 55.0561 244.427 50.8321 250.571 50.8321C255.035 50.8321 257.531 53.1361 259.019 56.1121V42.0001H261.707V76.5601ZM244.043 64.9441C244.043 70.3201 245.099 74.9281 251.243 74.9281C257.387 74.9281 259.019 70.1281 259.019 65.7121V62.2561C259.019 57.8401 257.387 53.0401 251.243 53.0401C245.099 53.0401 244.043 57.6481 244.043 63.0241V64.9441ZM271.104 76.5601H268.416V51.4081H271.104V56.7361C272.4 53.6641 274.32 51.4081 278.688 51.4081H280.032V54.1921C279.552 54.0961 279.072 54.0001 277.728 54.0001C273.504 54.0001 271.104 55.9201 271.104 62.5441V76.5601ZM293.357 77.1361C286.301 77.1361 282.413 72.6241 282.413 63.9841C282.413 55.3441 286.925 50.8321 293.069 50.8321C299.213 50.8321 303.629 55.3441 303.629 64.0801H285.101V64.4641C285.101 70.7041 287.213 74.9281 293.741 74.9281C298.733 74.9281 299.885 72.9121 300.557 70.8001H303.245C302.333 73.4881 300.269 77.1361 293.357 77.1361ZM300.893 61.6801C300.365 57.2641 298.253 53.0401 293.069 53.0401C288.173 53.0401 285.437 56.8801 285.149 62.1601H300.941L300.893 61.6801ZM329.645 63.9841C329.645 72.6241 325.229 77.1361 319.085 77.1361C312.941 77.1361 308.429 72.6241 308.429 63.9841C308.429 55.3441 312.941 50.8321 319.085 50.8321C325.229 50.8321 329.645 55.3441 329.645 63.9841ZM311.117 64.4641C311.117 70.7041 313.901 74.9281 319.085 74.9281C324.269 74.9281 326.957 70.7041 326.957 64.4641V63.5041C326.957 57.2641 324.269 53.0401 319.085 53.0401C313.805 53.0401 311.117 57.2641 311.117 63.5041V64.4641ZM339.461 72.2401C339.461 73.6801 340.037 74.3521 341.669 74.3521H345.317V76.5601H341.285C338.021 76.5601 336.773 75.0241 336.773 72.2401V53.6161H331.781V51.4081H336.773V42.0001H339.461V51.4081H345.029V53.6161H339.461V72.2401ZM355.868 72.2401C355.868 73.6801 356.444 74.3521 358.076 74.3521H361.724V76.5601H357.692C354.428 76.5601 353.18 75.0241 353.18 72.2401V53.6161H348.188V51.4081H353.18V42.0001H355.868V51.4081H361.436V53.6161H355.868V72.2401ZM369.682 76.5601H366.994V51.4081H369.682V76.5601ZM369.682 47.2801H366.994V42.0001H369.682V47.2801Z" fill="#5084FF"/>
</svg>
