<?xml version="1.0" encoding="UTF-8"?>
<svg id="Layer_2" data-name="Layer 2" xmlns="http://www.w3.org/2000/svg" viewBox="0 0 515.78 300.16">
  <defs>
    <style>
      .cls-1 {
        fill: #ff9ae9;
        font-family: MNKYKlausTRIAL-Thin, 'MNKY Klaus TRIAL';
        font-size: 11px;
        font-weight: 200;
      }
    </style>
  </defs>
  <g id="Layer_1-2" data-name="Layer 1">
    <text class="cls-1" transform="translate(93.21 1.91) rotate(152.2)"><tspan x="0" y="0">I</tspan></text>
    <text class="cls-1" transform="translate(90.49 3.34) rotate(150.83)"><tspan x="0" y="0">t</tspan></text>
    <text class="cls-1" transform="translate(86.76 5.43) rotate(149.91)"><tspan x="0" y="0"> </tspan></text>
    <text class="cls-1" transform="translate(84.86 6.53) rotate(149.3)"><tspan x="0" y="0">i</tspan></text>
    <text class="cls-1" transform="translate(82.76 7.76) rotate(148.28)"><tspan x="0" y="0">s</tspan></text>
    <text class="cls-1" transform="translate(77.76 10.87) rotate(147.34)"><tspan x="0" y="0"> </tspan></text>
    <text class="cls-1" transform="translate(75.9 12.05) rotate(146.59)"><tspan x="0" y="0">t</tspan></text>
    <text class="cls-1" transform="translate(72.51 14.27) rotate(145.4)"><tspan x="0" y="0">e</tspan></text>
    <text class="cls-1" transform="translate(67.18 17.94) rotate(143.9)"><tspan x="0" y="0">n</tspan></text>
    <text class="cls-1" transform="translate(61.96 21.75) rotate(142.3)"><tspan x="0" y="0">d</tspan></text>
    <text class="cls-1" transform="translate(56.44 26.03) rotate(141.14)"><tspan x="0" y="0">i</tspan></text>
    <text class="cls-1" transform="translate(54.54 27.54) rotate(140)"><tspan x="0" y="0">n</tspan></text>
    <text class="cls-1" transform="translate(49.6 31.69) rotate(138.19)"><tspan x="0" y="0">g</tspan></text>
    <text class="cls-1" transform="translate(44.38 36.39) rotate(136.89)"><tspan x="0" y="0"> </tspan></text>
    <text class="cls-1" transform="translate(42.8 37.85) rotate(135.95)"><tspan x="0" y="0">t</tspan></text>
    <text class="cls-1" transform="translate(39.72 40.81) rotate(134.31)"><tspan x="0" y="0">h</tspan></text>
    <text class="cls-1" transform="translate(35.07 45.57) rotate(132.12)"><tspan x="0" y="0">e</tspan></text>
    <text class="cls-1" transform="translate(30.64 50.51) rotate(130.56)"><tspan x="0" y="0"> </tspan></text>
    <text class="cls-1" transform="translate(29.05 52.27) rotate(128.32)"><tspan x="0" y="0">w</tspan></text>
    <text class="cls-1" transform="translate(23.09 59.88) rotate(124.97)"><tspan x="0" y="0">o</tspan></text>
    <text class="cls-1" transform="translate(19.09 65.61) rotate(121.92)"><tspan x="0" y="0">u</tspan></text>
    <text class="cls-1" transform="translate(15.55 71.3) rotate(118.68)"><tspan x="0" y="0">n</tspan></text>
    <text class="cls-1" transform="translate(12.29 77.25) rotate(114.98)"><tspan x="0" y="0">d</tspan></text>
    <text class="cls-1" transform="translate(9.21 83.92) rotate(111.15)"><tspan x="0" y="0">s</tspan></text>
    <text class="cls-1" transform="translate(7.04 89.66) rotate(108.6)"><tspan x="0" y="0"> </tspan></text>
    <text class="cls-1" transform="translate(6.22 91.96) rotate(105.77)"><tspan x="0" y="0">c</tspan></text>
    <text class="cls-1" transform="translate(4.43 98.45) rotate(102.24)"><tspan x="0" y="0">r</tspan></text>
    <text class="cls-1" transform="translate(3.56 102.3) rotate(98.76)"><tspan x="0" y="0">e</tspan></text>
    <text class="cls-1" transform="translate(2.53 109.12) rotate(94.19)"><tspan x="0" y="0">a</tspan></text>
    <text class="cls-1" transform="translate(2.1 115.45) rotate(90.46)"><tspan x="0" y="0">t</tspan></text>
    <text class="cls-1" transform="translate(2.03 119.83) rotate(86.69)"><tspan x="0" y="0">e</tspan></text>
    <text class="cls-1" transform="translate(2.45 126.87) rotate(81.77)"><tspan x="0" y="0">d</tspan></text>
    <text class="cls-1" transform="translate(3.57 134.07) rotate(78.6)"><tspan x="0" y="0"> </tspan></text>
    <text class="cls-1" transform="translate(3.96 136.56) rotate(74.74)"><tspan x="0" y="0">w</tspan></text>
    <text class="cls-1" transform="translate(6.65 146.08) rotate(69.82)"><tspan x="0" y="0">h</tspan></text>
    <text class="cls-1" transform="translate(8.99 152.35) rotate(67.06)"><tspan x="0" y="0">e</tspan></text>
    <text class="cls-1" transform="translate(11.52 158.32) rotate(66.08)"><tspan x="0" y="0">n</tspan></text>
    <text class="cls-1" transform="translate(14.16 164.23) rotate(65.43)"><tspan x="0" y="0"> </tspan></text>
    <text class="cls-1" transform="translate(15.07 166.23) rotate(64.96)"><tspan x="0" y="0">t</tspan></text>
    <text class="cls-1" transform="translate(16.87 170.11) rotate(64.18)"><tspan x="0" y="0">h</tspan></text>
    <text class="cls-1" transform="translate(19.68 175.92) rotate(63.27)"><tspan x="0" y="0">e</tspan></text>
    <text class="cls-1" transform="translate(22.62 181.72) rotate(62.67)"><tspan x="0" y="0"> </tspan></text>
    <text class="cls-1" transform="translate(23.62 183.67) rotate(62.11)"><tspan x="0" y="0">s</tspan></text>
    <text class="cls-1" transform="translate(26.38 188.9) rotate(61.31)"><tspan x="0" y="0">k</tspan></text>
    <text class="cls-1" transform="translate(29.34 194.28) rotate(60.74)"><tspan x="0" y="0">i</tspan></text>
    <text class="cls-1" transform="translate(30.52 196.41) rotate(60.17)"><tspan x="0" y="0">n</tspan></text>
    <text class="cls-1" transform="translate(33.76 202.03) rotate(59.62)"><tspan x="0" y="0"> </tspan></text>
    <text class="cls-1" transform="translate(34.85 203.93) rotate(59.08)"><tspan x="0" y="0">h</tspan></text>
    <text class="cls-1" transform="translate(38.18 209.48) rotate(58.26)"><tspan x="0" y="0">o</tspan></text>
    <text class="cls-1" transform="translate(41.71 215.17) rotate(57.71)"><tspan x="0" y="0">l</tspan></text>
    <text class="cls-1" transform="translate(43.01 217.25) rotate(57.15)"><tspan x="0" y="0">d</tspan></text>
    <text class="cls-1" transform="translate(46.83 223.15) rotate(56.59)"><tspan x="0" y="0">i</tspan></text>
    <text class="cls-1" transform="translate(48.17 225.19) rotate(56.07)"><tspan x="0" y="0">n</tspan></text>
    <text class="cls-1" transform="translate(51.79 230.57) rotate(55.3)"><tspan x="0" y="0">g</tspan></text>
    <text class="cls-1" transform="translate(55.81 236.36) rotate(54.77)"><tspan x="0" y="0"> </tspan></text>
    <text class="cls-1" transform="translate(57.04 238.12) rotate(54.28)"><tspan x="0" y="0">o</tspan></text>
    <text class="cls-1" transform="translate(60.99 243.66) rotate(52.99)"><tspan x="0" y="0">n</tspan></text>
    <text class="cls-1" transform="translate(65 249) rotate(50.3)"><tspan x="0" y="0">e</tspan></text>
    <text class="cls-1" transform="translate(69.31 254.13) rotate(48.28)"><tspan x="0" y="0"> </tspan></text>
    <text class="cls-1" transform="translate(70.86 255.93) rotate(46.15)"><tspan x="0" y="0">b</tspan></text>
    <text class="cls-1" transform="translate(76.07 261.33) rotate(42.86)"><tspan x="0" y="0">o</tspan></text>
    <text class="cls-1" transform="translate(81.36 266.22) rotate(39.59)"><tspan x="0" y="0">d</tspan></text>
    <text class="cls-1" transform="translate(86.97 270.84) rotate(36.54)"><tspan x="0" y="0">y</tspan></text>
    <text class="cls-1" transform="translate(92.07 274.58) rotate(34.61)"><tspan x="0" y="0"> </tspan></text>
    <text class="cls-1" transform="translate(93.99 275.94) rotate(32.73)"><tspan x="0" y="0">s</tspan></text>
    <text class="cls-1" transform="translate(99.15 279.23) rotate(30.38)"><tspan x="0" y="0">t</tspan></text>
    <text class="cls-1" transform="translate(103 281.48) rotate(28.48)"><tspan x="0" y="0">r</tspan></text>
    <text class="cls-1" transform="translate(106.37 283.34) rotate(26.2)"><tspan x="0" y="0">e</tspan></text>
    <text class="cls-1" transform="translate(112.27 286.21) rotate(23.78)"><tspan x="0" y="0">t</tspan></text>
    <text class="cls-1" transform="translate(116.21 287.97) rotate(21.4)"><tspan x="0" y="0">c</tspan></text>
    <text class="cls-1" transform="translate(122.42 290.4) rotate(18.43)"><tspan x="0" y="0">h</tspan></text>
    <text class="cls-1" transform="translate(128.8 292.52) rotate(15.45)"><tspan x="0" y="0">e</tspan></text>
    <text class="cls-1" transform="translate(135.32 294.31) rotate(12.59)"><tspan x="0" y="0">s</tspan></text>
    <text class="cls-1" transform="translate(141.27 295.61) rotate(10.71)"><tspan x="0" y="0"> </tspan></text>
    <text class="cls-1" transform="translate(143.59 296.08) rotate(8.8)"><tspan x="0" y="0">a</tspan></text>
    <text class="cls-1" transform="translate(149.89 297.05) rotate(5.89)"><tspan x="0" y="0">n</tspan></text>
    <text class="cls-1" transform="translate(156.59 297.74) rotate(2.79)"><tspan x="0" y="0">d</tspan></text>
    <text class="cls-1" transform="translate(163.78 298.04) rotate(.66)"><tspan x="0" y="0"> </tspan></text>
    <text class="cls-1" transform="translate(166.09 298.08) rotate(-.82)"><tspan x="0" y="0">t</tspan></text>
    <text class="cls-1" transform="translate(170.38 298.04) rotate(-3.21)"><tspan x="0" y="0">e</tspan></text>
    <text class="cls-1" transform="translate(177.13 297.65) rotate(-6.12)"><tspan x="0" y="0">a</tspan></text>
    <text class="cls-1" transform="translate(183.38 296.95) rotate(-8.15)"><tspan x="0" y="0">r</tspan></text>
    <text class="cls-1" transform="translate(187.19 296.4) rotate(-8.1)"><tspan x="0" y="0">s</tspan></text>
    <text class="cls-1" transform="translate(193.05 295.57) rotate(-8.01)"><tspan x="0" y="0"> </tspan></text>
    <text class="cls-1" transform="translate(195.24 295.26) rotate(-7.96)"><tspan x="0" y="0">i</tspan></text>
    <text class="cls-1" transform="translate(197.68 294.92) rotate(-7.86)"><tspan x="0" y="0">n</tspan></text>
    <text class="cls-1" transform="translate(204.09 294.03) rotate(-7.76)"><tspan x="0" y="0"> </tspan></text>
    <text class="cls-1" transform="translate(206.27 293.73) rotate(-7.66)"><tspan x="0" y="0">o</tspan></text>
    <text class="cls-1" transform="translate(212.94 292.84) rotate(-7.54)"><tspan x="0" y="0">r</tspan></text>
    <text class="cls-1" transform="translate(216.6 292.35) rotate(-7.42)"><tspan x="0" y="0">d</tspan></text>
    <text class="cls-1" transform="translate(223.58 291.45) rotate(-7.26)"><tspan x="0" y="0">e</tspan></text>
    <text class="cls-1" transform="translate(230.04 290.62) rotate(-7.14)"><tspan x="0" y="0">r</tspan></text>
    <text class="cls-1" transform="translate(233.95 290.13) rotate(-7.06)"><tspan x="0" y="0"> </tspan></text>
    <text class="cls-1" transform="translate(236.14 289.86) rotate(-6.98)"><tspan x="0" y="0">t</tspan></text>
    <text class="cls-1" transform="translate(240.19 289.36) rotate(-6.85)"><tspan x="0" y="0">o</tspan></text>
    <text class="cls-1" transform="translate(246.87 288.56) rotate(-6.74)"><tspan x="0" y="0"> </tspan></text>
    <text class="cls-1" transform="translate(249.07 288.3) rotate(-6.66)"><tspan x="0" y="0">r</tspan></text>
    <text class="cls-1" transform="translate(252.72 287.87) rotate(-6.53)"><tspan x="0" y="0">e</tspan></text>
    <text class="cls-1" transform="translate(259.32 287.12) rotate(-6.35)"><tspan x="0" y="0">c</tspan></text>
    <text class="cls-1" transform="translate(265.71 286.41) rotate(-6.23)"><tspan x="0" y="0">i</tspan></text>
    <text class="cls-1" transform="translate(268.16 286.14) rotate(-6.11)"><tspan x="0" y="0">e</tspan></text>
    <text class="cls-1" transform="translate(274.54 285.46) rotate(-5.93)"><tspan x="0" y="0">v</tspan></text>
    <text class="cls-1" transform="translate(280.54 284.83) rotate(-5.75)"><tspan x="0" y="0">e</tspan></text>
    <text class="cls-1" transform="translate(287.01 284.18) rotate(-5.62)"><tspan x="0" y="0"> </tspan></text>
    <text class="cls-1" transform="translate(289.2 283.97) rotate(-5.49)"><tspan x="0" y="0">a</tspan></text>
    <text class="cls-1" transform="translate(295.31 283.38) rotate(-5.29)"><tspan x="0" y="0">n</tspan></text>
    <text class="cls-1" transform="translate(301.76 282.78) rotate(-5.07)"><tspan x="0" y="0">d</tspan></text>
    <text class="cls-1" transform="translate(308.78 282.16) rotate(-4.92)"><tspan x="0" y="0"> </tspan></text>
    <text class="cls-1" transform="translate(310.96 281.97) rotate(-4.76)"><tspan x="0" y="0">b</tspan></text>
    <text class="cls-1" transform="translate(318.17 281.37) rotate(-4.51)"><tspan x="0" y="0">e</tspan></text>
    <text class="cls-1" transform="translate(324.64 280.86) rotate(-4.35)"><tspan x="0" y="0"> </tspan></text>
    <text class="cls-1" transform="translate(326.86 280.69) rotate(-4.23)"><tspan x="0" y="0">r</tspan></text>
    <text class="cls-1" transform="translate(330.52 280.42) rotate(-4.04)"><tspan x="0" y="0">e</tspan></text>
    <text class="cls-1" transform="translate(336.92 279.97) rotate(-3.83)"><tspan x="0" y="0">f</tspan></text>
    <text class="cls-1" transform="translate(341.04 279.7) rotate(-3.69)"><tspan x="0" y="0">i</tspan></text>
    <text class="cls-1" transform="translate(343.5 279.53) rotate(-3.49)"><tspan x="0" y="0">g</tspan></text>
    <text class="cls-1" transform="translate(350.54 279.11) rotate(-3.18)"><tspan x="0" y="0">u</tspan></text>
    <text class="cls-1" transform="translate(356.95 278.75) rotate(-2.94)"><tspan x="0" y="0">r</tspan></text>
    <text class="cls-1" transform="translate(360.62 278.56) rotate(-2.7)"><tspan x="0" y="0">e</tspan></text>
    <text class="cls-1" transform="translate(367.26 278.24) rotate(-2.35)"><tspan x="0" y="0">d</tspan></text>
    <text class="cls-1" transform="translate(374.27 277.96) rotate(-2.1)"><tspan x="0" y="0"> </tspan></text>
    <text class="cls-1" transform="translate(376.47 277.88) rotate(-1.85)"><tspan x="0" y="0">b</tspan></text>
    <text class="cls-1" transform="translate(383.35 277.66) rotate(-1.47)"><tspan x="0" y="0">y</tspan></text>
    <text class="cls-1" transform="translate(389.51 277.5) rotate(-1.21)"><tspan x="0" y="0"> </tspan></text>
    <text class="cls-1" transform="translate(391.69 277.45) rotate(-.95)"><tspan x="0" y="0">a</tspan></text>
    <text class="cls-1" transform="translate(397.83 277.35) rotate(-.52)"><tspan x="0" y="0">n</tspan></text>
    <text class="cls-1" transform="translate(404.28 277.29) rotate(-.04)"><tspan x="0" y="0">o</tspan></text>
    <text class="cls-1" transform="translate(410.89 277.29) rotate(.37)"><tspan x="0" y="0">t</tspan></text>
    <text class="cls-1" transform="translate(415.17 277.31) rotate(.82)"><tspan x="0" y="0">h</tspan></text>
    <text class="cls-1" transform="translate(421.65 277.4) rotate(1.39)"><tspan x="0" y="0">e</tspan></text>
    <text class="cls-1" transform="translate(428.17 277.57) rotate(1.89)"><tspan x="0" y="0">r</tspan></text>
  </g>
</svg>