<?xml version="1.0" encoding="UTF-8"?>
<svg id="Layer_2" data-name="Layer 2" xmlns="http://www.w3.org/2000/svg" viewBox="0 0 288.95 268.65">
  <defs>
    <style>
      .cls-1 {
        font-family: MNKYKlausTRIAL-Thin, 'MNKY Klaus TRIAL';
        font-weight: 200;
      }

      .cls-1, .cls-2 {
        fill: #ff9ae9;
        font-size: 11px;
      }

      .cls-2 {
        font-family: MyriadPro-Regular, 'Myriad Pro';
      }
    </style>
  </defs>
  <g id="Layer_1-2" data-name="Layer 1">
    <text class="cls-1" transform="translate(2.64 121.17) rotate(33.83)"><tspan x="0" y="0">i</tspan></text>
    <text class="cls-1" transform="translate(4.67 122.53) rotate(33.53)"><tspan x="0" y="0">t</tspan></text>
    <text class="cls-1" transform="translate(8.25 124.9) rotate(33.28)"><tspan x="0" y="0"> </tspan></text>
    <text class="cls-1" transform="translate(10.08 126.1) rotate(33.11)"><tspan x="0" y="0">i</tspan></text>
    <text class="cls-1" transform="translate(12.14 127.45) rotate(32.83)"><tspan x="0" y="0">s</tspan></text>
    <text class="cls-1" transform="translate(17.14 130.67) rotate(32.57)"><tspan x="0" y="0"> </tspan></text>
    <text class="cls-1" transform="translate(18.99 131.86) rotate(32.31)"><tspan x="0" y="0">a</tspan></text>
    <text class="cls-1" transform="translate(24.16 135.13) rotate(31.91)"><tspan x="0" y="0">b</tspan></text>
    <text class="cls-1" transform="translate(30.3 138.95) rotate(31.5)"><tspan x="0" y="0">o</tspan></text>
    <text class="cls-1" transform="translate(36.03 142.46) rotate(31.11)"><tspan x="0" y="0">u</tspan></text>
    <text class="cls-1" transform="translate(41.54 145.78) rotate(30.79)"><tspan x="0" y="0">t</tspan></text>
    <text class="cls-1" transform="translate(45.24 147.98) rotate(30.59)"><tspan x="0" y="0"> </tspan></text>
    <text class="cls-1" transform="translate(47.12 149.1) rotate(30.31)"><tspan x="0" y="0">b</tspan></text>
    <text class="cls-1" transform="translate(53.36 152.75) rotate(29.88)"><tspan x="0" y="0">e</tspan></text>
    <text class="cls-1" transform="translate(59.02 155.99) rotate(29.59)"><tspan x="0" y="0">i</tspan></text>
    <text class="cls-1" transform="translate(61.15 157.21) rotate(29.3)"><tspan x="0" y="0">n</tspan></text>
    <text class="cls-1" transform="translate(66.79 160.37) rotate(28.84)"><tspan x="0" y="0">g</tspan></text>
    <text class="cls-1" transform="translate(72.97 163.77) rotate(28.52)"><tspan x="0" y="0"> </tspan></text>
    <text class="cls-1" transform="translate(74.88 164.82) rotate(28.2)"><tspan x="0" y="0">o</tspan></text>
    <text class="cls-1" transform="translate(80.82 168) rotate(27.69)"><tspan x="0" y="0">p</tspan></text>
    <text class="cls-1" transform="translate(87.2 171.35) rotate(27.14)"><tspan x="0" y="0">e</tspan></text>
    <text class="cls-1" transform="translate(93 174.32) rotate(26.6)"><tspan x="0" y="0">n</tspan></text>
    <text class="cls-1" transform="translate(98.79 177.21) rotate(26.22)"><tspan x="0" y="0"> </tspan></text>
    <text class="cls-1" transform="translate(100.75 178.18) rotate(25.93)"><tspan x="0" y="0">t</tspan></text>
    <text class="cls-1" transform="translate(104.42 179.97) rotate(25.44)"><tspan x="0" y="0">o</tspan></text>
    <text class="cls-1" transform="translate(110.51 182.86) rotate(25)"><tspan x="0" y="0"> </tspan></text>
    <text class="cls-1" transform="translate(112.46 183.79) rotate(24.4)"><tspan x="0" y="0">w</tspan></text>
    <text class="cls-1" transform="translate(121.09 187.69) rotate(23.51)"><tspan x="0" y="0">h</tspan></text>
    <text class="cls-1" transform="translate(127.04 190.28) rotate(22.74)"><tspan x="0" y="0">a</tspan></text>
    <text class="cls-1" transform="translate(132.6 192.6) rotate(22.08)"><tspan x="0" y="0">t</tspan></text>
    <text class="cls-1" transform="translate(136.56 194.21) rotate(21.64)"><tspan x="0" y="0"> </tspan></text>
    <text class="cls-1" transform="translate(138.57 195.04) rotate(20.79)"><tspan x="0" y="0">w</tspan></text>
    <text class="cls-1" transform="translate(147.33 198.35) rotate(19.53)"><tspan x="0" y="0">e</tspan></text>
    <text class="cls-1" transform="translate(153.47 200.51) rotate(18.77)"><tspan x="0" y="0"> </tspan></text>
    <text class="cls-1" transform="translate(155.51 201.22) rotate(17.96)"><tspan x="0" y="0">c</tspan></text>
    <text class="cls-1" transform="translate(161.69 203.22) rotate(16.65)"><tspan x="0" y="0">a</tspan></text>
    <text class="cls-1" transform="translate(167.52 204.97) rotate(15.21)"><tspan x="0" y="0">n</tspan></text>
    <text class="cls-2" transform="translate(173.76 206.65) rotate(14.13)"><tspan x="0" y="0">&apos;</tspan></text>
    <text class="cls-1" transform="translate(175.75 207.16) rotate(13.26)"><tspan x="0" y="0">t</tspan></text>
    <text class="cls-1" transform="translate(179.92 208.13) rotate(12.31)"><tspan x="0" y="0"> </tspan></text>
    <text class="cls-1" transform="translate(182.05 208.62) rotate(10.99)"><tspan x="0" y="0">a</tspan></text>
    <text class="cls-1" transform="translate(188.27 209.83) rotate(8.65)"><tspan x="0" y="0">n</tspan></text>
    <text class="cls-1" transform="translate(194.94 210.85) rotate(5.67)"><tspan x="0" y="0">d</tspan></text>
    <text class="cls-1" transform="translate(202.13 211.51) rotate(3.29)"><tspan x="0" y="0"> </tspan></text>
    <text class="cls-1" transform="translate(204.62 211.78) rotate(-.48)"><tspan x="0" y="0">m</tspan></text>
    <text class="cls-1" transform="translate(215.3 211.58) rotate(-6.79)"><tspan x="0" y="0">a</tspan></text>
    <text class="cls-1" transform="translate(221.77 210.8) rotate(-12.79)"><tspan x="0" y="0">y</tspan></text>
    <text class="cls-1" transform="translate(228.13 209.25) rotate(-17.77)"><tspan x="0" y="0"> </tspan></text>
    <text class="cls-1" transform="translate(230.72 208.52) rotate(-23.77)"><tspan x="0" y="0">n</tspan></text>
    <text class="cls-1" transform="translate(237.42 205.5) rotate(-34.23)"><tspan x="0" y="0">e</tspan></text>
    <text class="cls-1" transform="translate(243.41 201.32) rotate(-45.24)"><tspan x="0" y="0">v</tspan></text>
    <text class="cls-1" transform="translate(248.22 196.38) rotate(-55.96)"><tspan x="0" y="0">e</tspan></text>
    <text class="cls-1" transform="translate(252.11 190.36) rotate(-63.99)"><tspan x="0" y="0">r</tspan></text>
    <text class="cls-1" transform="translate(253.94 186.5) rotate(-68.15)"><tspan x="0" y="0"> </tspan></text>
    <text class="cls-1" transform="translate(254.99 184.09) rotate(-73.3)"><tspan x="0" y="0">u</tspan></text>
    <text class="cls-1" transform="translate(256.94 177.42) rotate(-79.65)"><tspan x="0" y="0">n</tspan></text>
    <text class="cls-1" transform="translate(258.17 170.61) rotate(-84.9)"><tspan x="0" y="0">d</tspan></text>
    <text class="cls-1" transform="translate(258.79 163.27) rotate(-89.09)"><tspan x="0" y="0">e</tspan></text>
    <text class="cls-1" transform="translate(258.86 156.54) rotate(-91.77)"><tspan x="0" y="0">r</tspan></text>
    <text class="cls-1" transform="translate(258.76 152.55) rotate(-93.9)"><tspan x="0" y="0">s</tspan></text>
    <text class="cls-1" transform="translate(258.32 146.44) rotate(-95.9)"><tspan x="0" y="0">t</tspan></text>
    <text class="cls-1" transform="translate(257.87 142.03) rotate(-97.67)"><tspan x="0" y="0">a</tspan></text>
    <text class="cls-1" transform="translate(257.06 136.01) rotate(-99.49)"><tspan x="0" y="0">n</tspan></text>
    <text class="cls-1" transform="translate(256.01 129.67) rotate(-101.19)"><tspan x="0" y="0">d</tspan></text>
  </g>
</svg>