<?xml version="1.0" encoding="UTF-8"?>
<svg id="Layer_2" data-name="Layer 2" xmlns="http://www.w3.org/2000/svg" viewBox="0 0 451.05 333.71">
  <defs>
    <style>
      .cls-1 {
        fill: #ff9ae9;
        font-family: MNKYKlausTRIAL-Thin, 'MNKY Klaus TRIAL';
        font-size: 11px;
        font-weight: 200;
      }
    </style>
  </defs>
  <g id="Layer_1-2" data-name="Layer 1">
    <text class="cls-1" transform="translate(3.72 46.05) rotate(6.36)"><tspan x="0" y="0">i</tspan></text>
    <text class="cls-1" transform="translate(6.14 46.32) rotate(6.88)"><tspan x="0" y="0">t</tspan></text>
    <text class="cls-1" transform="translate(10.41 46.84) rotate(7.28)"><tspan x="0" y="0"> </tspan></text>
    <text class="cls-1" transform="translate(12.58 47.12) rotate(7.55)"><tspan x="0" y="0">i</tspan></text>
    <text class="cls-1" transform="translate(15 47.43) rotate(7.98)"><tspan x="0" y="0">s</tspan></text>
    <text class="cls-1" transform="translate(20.89 48.26) rotate(8.37)"><tspan x="0" y="0"> </tspan></text>
    <text class="cls-1" transform="translate(23.04 48.58) rotate(8.57)"><tspan x="0" y="0">l</tspan></text>
    <text class="cls-1" transform="translate(25.47 48.94) rotate(8.97)"><tspan x="0" y="0">o</tspan></text>
    <text class="cls-1" transform="translate(32.3 50.02) rotate(9.54)"><tspan x="0" y="0">o</tspan></text>
    <text class="cls-1" transform="translate(38.91 51.13) rotate(10.04)"><tspan x="0" y="0">k</tspan></text>
    <text class="cls-1" transform="translate(44.96 52.21) rotate(10.37)"><tspan x="0" y="0">i</tspan></text>
    <text class="cls-1" transform="translate(47.37 52.64) rotate(10.71)"><tspan x="0" y="0">n</tspan></text>
    <text class="cls-1" transform="translate(53.74 53.85) rotate(11.2)"><tspan x="0" y="0">g</tspan></text>
    <text class="cls-1" transform="translate(60.64 55.22) rotate(11.54)"><tspan x="0" y="0"> </tspan></text>
    <text class="cls-1" transform="translate(62.8 55.65) rotate(11.84)"><tspan x="0" y="0">a</tspan></text>
    <text class="cls-1" transform="translate(68.69 56.89) rotate(12.2)"><tspan x="0" y="0">t</tspan></text>
    <text class="cls-1" transform="translate(72.89 57.8) rotate(12.43)"><tspan x="0" y="0"> </tspan></text>
    <text class="cls-1" transform="translate(75.02 58.26) rotate(12.76)"><tspan x="0" y="0">p</tspan></text>
    <text class="cls-1" transform="translate(82 59.85) rotate(13.23)"><tspan x="0" y="0">a</tspan></text>
    <text class="cls-1" transform="translate(87.96 61.25) rotate(13.53)"><tspan x="0" y="0">i</tspan></text>
    <text class="cls-1" transform="translate(90.35 61.82) rotate(13.85)"><tspan x="0" y="0">n</tspan></text>
    <text class="cls-1" transform="translate(96.57 63.36) rotate(14.21)"><tspan x="0" y="0">f</tspan></text>
    <text class="cls-1" transform="translate(100.43 64.33) rotate(14.58)"><tspan x="0" y="0">u</tspan></text>
    <text class="cls-1" transform="translate(106.63 65.95) rotate(14.89)"><tspan x="0" y="0">l</tspan></text>
    <text class="cls-1" transform="translate(109.02 66.59) rotate(15.06)"><tspan x="0" y="0"> </tspan></text>
    <text class="cls-1" transform="translate(111.15 67.15) rotate(15.35)"><tspan x="0" y="0">a</tspan></text>
    <text class="cls-1" transform="translate(117.04 68.77) rotate(15.8)"><tspan x="0" y="0">n</tspan></text>
    <text class="cls-1" transform="translate(123.27 70.53) rotate(16.29)"><tspan x="0" y="0">d</tspan></text>
    <text class="cls-1" transform="translate(130.04 72.52) rotate(16.63)"><tspan x="0" y="0"> </tspan></text>
    <text class="cls-1" transform="translate(132.13 73.14) rotate(16.96)"><tspan x="0" y="0">d</tspan></text>
    <text class="cls-1" transform="translate(138.84 75.19) rotate(17.31)"><tspan x="0" y="0">i</tspan></text>
    <text class="cls-1" transform="translate(141.25 75.94) rotate(17.55)"><tspan x="0" y="0">f</tspan></text>
    <text class="cls-1" transform="translate(145.24 77.2) rotate(17.87)"><tspan x="0" y="0">f</tspan></text>
    <text class="cls-1" transform="translate(149.16 78.47) rotate(18.12)"><tspan x="0" y="0">i</tspan></text>
    <text class="cls-1" transform="translate(151.49 79.22) rotate(18.45)"><tspan x="0" y="0">c</tspan></text>
    <text class="cls-1" transform="translate(157.6 81.26) rotate(18.95)"><tspan x="0" y="0">u</tspan></text>
    <text class="cls-1" transform="translate(163.68 83.36) rotate(19.29)"><tspan x="0" y="0">l</tspan></text>
    <text class="cls-1" transform="translate(166 84.16) rotate(19.55)"><tspan x="0" y="0">t</tspan></text>
    <text class="cls-1" transform="translate(170.05 85.61) rotate(19.81)"><tspan x="0" y="0"> </tspan></text>
    <text class="cls-1" transform="translate(172.1 86.34) rotate(20.06)"><tspan x="0" y="0">t</tspan></text>
    <text class="cls-1" transform="translate(176.15 87.82) rotate(20.49)"><tspan x="0" y="0">h</tspan></text>
    <text class="cls-1" transform="translate(182.21 90.09) rotate(20.85)"><tspan x="0" y="0">i</tspan></text>
    <text class="cls-1" transform="translate(184.51 90.96) rotate(21.21)"><tspan x="0" y="0">n</tspan></text>
    <text class="cls-1" transform="translate(190.55 93.3) rotate(21.77)"><tspan x="0" y="0">g</tspan></text>
    <text class="cls-1" transform="translate(197.07 95.9) rotate(22.31)"><tspan x="0" y="0">s</tspan></text>
    <text class="cls-1" transform="translate(202.55 98.16) rotate(22.65)"><tspan x="0" y="0"> </tspan></text>
    <text class="cls-1" transform="translate(204.57 98.99) rotate(23.15)"><tspan x="0" y="0">w</tspan></text>
    <text class="cls-1" transform="translate(213.27 102.72) rotate(23.67)"><tspan x="0" y="0">i</tspan></text>
    <text class="cls-1" transform="translate(215.53 103.71) rotate(23.97)"><tspan x="0" y="0">t</tspan></text>
    <text class="cls-1" transform="translate(219.44 105.44) rotate(24.44)"><tspan x="0" y="0">h</tspan></text>
    <text class="cls-1" transform="translate(225.34 108.13) rotate(24.84)"><tspan x="0" y="0"> </tspan></text>
    <text class="cls-1" transform="translate(227.32 109.05) rotate(25.13)"><tspan x="0" y="0">t</tspan></text>
    <text class="cls-1" transform="translate(231.21 110.87) rotate(25.63)"><tspan x="0" y="0">h</tspan></text>
    <text class="cls-1" transform="translate(237.04 113.66) rotate(26.23)"><tspan x="0" y="0">e</tspan></text>
    <text class="cls-1" transform="translate(242.88 116.55) rotate(26.65)"><tspan x="0" y="0"> </tspan></text>
    <text class="cls-1" transform="translate(244.83 117.53) rotate(26.87)"><tspan x="0" y="0">l</tspan></text>
    <text class="cls-1" transform="translate(247.03 118.63) rotate(27.31)"><tspan x="0" y="0">o</tspan></text>
    <text class="cls-1" transform="translate(252.88 121.65) rotate(27.93)"><tspan x="0" y="0">v</tspan></text>
    <text class="cls-1" transform="translate(258.19 124.46) rotate(28.55)"><tspan x="0" y="0">e</tspan></text>
    <text class="cls-1" transform="translate(263.9 127.59) rotate(28.99)"><tspan x="0" y="0"> </tspan></text>
    <text class="cls-1" transform="translate(265.82 128.64) rotate(29.45)"><tspan x="0" y="0">o</tspan></text>
    <text class="cls-1" transform="translate(271.61 131.91) rotate(30)"><tspan x="0" y="0">f</tspan></text>
    <text class="cls-1" transform="translate(275.02 133.89) rotate(30.32)"><tspan x="0" y="0"> </tspan></text>
    <text class="cls-1" transform="translate(276.91 134.99) rotate(30.65)"><tspan x="0" y="0">r</tspan></text>
    <text class="cls-1" transform="translate(280.07 136.85) rotate(31.18)"><tspan x="0" y="0">e</tspan></text>
    <text class="cls-1" transform="translate(285.64 140.23) rotate(31.88)"><tspan x="0" y="0">a</tspan></text>
    <text class="cls-1" transform="translate(290.84 143.47) rotate(32.35)"><tspan x="0" y="0">l</tspan></text>
    <text class="cls-1" transform="translate(292.9 144.77) rotate(32.63)"><tspan x="0" y="0">l</tspan></text>
    <text class="cls-1" transform="translate(294.98 146.09) rotate(33.12)"><tspan x="0" y="0">y</tspan></text>
    <text class="cls-1" transform="translate(300.11 149.45) rotate(33.59)"><tspan x="0" y="0"> </tspan></text>
    <text class="cls-1" transform="translate(301.95 150.64) rotate(34.27)"><tspan x="0" y="0">w</tspan></text>
    <text class="cls-1" transform="translate(309.76 155.99) rotate(35.2)"><tspan x="0" y="0">a</tspan></text>
    <text class="cls-1" transform="translate(314.75 159.5) rotate(35.96)"><tspan x="0" y="0">n</tspan></text>
    <text class="cls-1" transform="translate(319.91 163.25) rotate(36.61)"><tspan x="0" y="0">t</tspan></text>
    <text class="cls-1" transform="translate(323.35 165.81) rotate(37.03)"><tspan x="0" y="0">i</tspan></text>
    <text class="cls-1" transform="translate(325.3 167.27) rotate(37.59)"><tspan x="0" y="0">n</tspan></text>
    <text class="cls-1" transform="translate(330.42 171.21) rotate(38.46)"><tspan x="0" y="0">g</tspan></text>
    <text class="cls-1" transform="translate(335.92 175.59) rotate(39.06)"><tspan x="0" y="0"> </tspan></text>
    <text class="cls-1" transform="translate(337.62 176.97) rotate(39.48)"><tspan x="0" y="0">t</tspan></text>
    <text class="cls-1" transform="translate(340.76 179.55) rotate(40.19)"><tspan x="0" y="0">o</tspan></text>
    <text class="cls-1" transform="translate(345.88 183.89) rotate(40.79)"><tspan x="0" y="0"> </tspan></text>
    <text class="cls-1" transform="translate(347.54 185.31) rotate(41.34)"><tspan x="0" y="0">s</tspan></text>
    <text class="cls-1" transform="translate(352.08 189.29) rotate(42.22)"><tspan x="0" y="0">e</tspan></text>
    <text class="cls-1" transform="translate(356.98 193.74) rotate(43.15)"><tspan x="0" y="0">e</tspan></text>
    <text class="cls-1" transform="translate(361.71 198.2) rotate(43.77)"><tspan x="0" y="0"> </tspan></text>
  </g>
</svg>