<?xml version="1.0" encoding="UTF-8"?>
<svg id="Layer_2" data-name="Layer 2" xmlns="http://www.w3.org/2000/svg" viewBox="0 0 309.38 220.93">
  <defs>
    <style>
      .cls-1 {
        fill: #ff9ae9;
        font-family: MNKYKlausTRIAL-Thin, 'MNKY Klaus TRIAL';
        font-size: 11px;
        font-weight: 200;
      }
    </style>
  </defs>
  <g id="Layer_1-2" data-name="Layer 1">
    <text class="cls-1" transform="translate(86.04 193.01) rotate(-132.34)"><tspan x="0" y="0">i</tspan></text>
    <text class="cls-1" transform="translate(84.38 191.2) rotate(-131.53)"><tspan x="0" y="0">t</tspan></text>
    <text class="cls-1" transform="translate(81.56 188) rotate(-130.82)"><tspan x="0" y="0"> </tspan></text>
    <text class="cls-1" transform="translate(80.14 186.36) rotate(-130.34)"><tspan x="0" y="0">i</tspan></text>
    <text class="cls-1" transform="translate(78.55 184.5) rotate(-129.49)"><tspan x="0" y="0">s</tspan></text>
    <text class="cls-1" transform="translate(74.8 179.93) rotate(-128.66)"><tspan x="0" y="0"> </tspan></text>
    <text class="cls-1" transform="translate(73.43 178.23) rotate(-127.98)"><tspan x="0" y="0">t</tspan></text>
    <text class="cls-1" transform="translate(70.81 174.89) rotate(-126.83)"><tspan x="0" y="0">u</tspan></text>
    <text class="cls-1" transform="translate(66.97 169.74) rotate(-125.63)"><tspan x="0" y="0">r</tspan></text>
    <text class="cls-1" transform="translate(64.67 166.57) rotate(-124.35)"><tspan x="0" y="0">n</tspan></text>
    <text class="cls-1" transform="translate(61.06 161.25) rotate(-123.16)"><tspan x="0" y="0">i</tspan></text>
    <text class="cls-1" transform="translate(59.71 159.23) rotate(-121.86)"><tspan x="0" y="0">n</tspan></text>
    <text class="cls-1" transform="translate(56.31 153.77) rotate(-119.67)"><tspan x="0" y="0">g</tspan></text>
    <text class="cls-1" transform="translate(52.89 147.7) rotate(-117.98)"><tspan x="0" y="0"> </tspan></text>
    <text class="cls-1" transform="translate(51.86 145.79) rotate(-116.66)"><tspan x="0" y="0">t</tspan></text>
    <text class="cls-1" transform="translate(49.94 142.03) rotate(-114.21)"><tspan x="0" y="0">h</tspan></text>
    <text class="cls-1" transform="translate(47.31 136.19) rotate(-110.7)"><tspan x="0" y="0">e</tspan></text>
    <text class="cls-1" transform="translate(45.08 130.16) rotate(-107.92)"><tspan x="0" y="0"> </tspan></text>
    <text class="cls-1" transform="translate(44.37 128.18) rotate(-104.73)"><tspan x="0" y="0">h</tspan></text>
    <text class="cls-1" transform="translate(42.74 122.09) rotate(-98.94)"><tspan x="0" y="0">e</tspan></text>
    <text class="cls-1" transform="translate(41.75 115.84) rotate(-91.81)"><tspan x="0" y="0">a</tspan></text>
    <text class="cls-1" transform="translate(41.6 109.93) rotate(-84.95)"><tspan x="0" y="0">r</tspan></text>
    <text class="cls-1" transform="translate(41.92 106.12) rotate(-78.35)"><tspan x="0" y="0">t</tspan></text>
    <text class="cls-1" transform="translate(42.79 102.09) rotate(-72.79)"><tspan x="0" y="0"> </tspan></text>
    <text class="cls-1" transform="translate(43.4 100.1) rotate(-68.56)"><tspan x="0" y="0">i</tspan></text>
    <text class="cls-1" transform="translate(44.05 97.98) rotate(-60.3)"><tspan x="0" y="0">n</tspan></text>
    <text class="cls-1" transform="translate(47.12 92.72) rotate(-50.65)"><tspan x="0" y="0">t</tspan></text>
    <text class="cls-1" transform="translate(49.46 89.67) rotate(-41.78)"><tspan x="0" y="0">o</tspan></text>
    <text class="cls-1" transform="translate(54.4 85.42) rotate(-35.25)"><tspan x="0" y="0"> </tspan></text>
    <text class="cls-1" transform="translate(56.03 84.16) rotate(-29.95)"><tspan x="0" y="0">a</tspan></text>
    <text class="cls-1" transform="translate(61.27 81.23) rotate(-25.37)"><tspan x="0" y="0"> </tspan></text>
    <text class="cls-1" transform="translate(63.1 80.29) rotate(-21.47)"><tspan x="0" y="0">v</tspan></text>
    <text class="cls-1" transform="translate(68.57 78.12) rotate(-16.64)"><tspan x="0" y="0">e</tspan></text>
    <text class="cls-1" transform="translate(74.73 76.32) rotate(-13.31)"><tspan x="0" y="0">r</tspan></text>
    <text class="cls-1" transform="translate(78.48 75.38) rotate(-10.14)"><tspan x="0" y="0">b</tspan></text>
    <text class="cls-1" transform="translate(85.19 74.2) rotate(-8.75)"><tspan x="0" y="0">:</tspan></text>
    <text class="cls-1" transform="translate(86.98 73.92) rotate(-7.96)"><tspan x="0" y="0"> </tspan></text>
    <text class="cls-1" transform="translate(89.1 73.59) rotate(-6.33)"><tspan x="0" y="0">c</tspan></text>
    <text class="cls-1" transform="translate(95.44 72.89) rotate(-4.01)"><tspan x="0" y="0">o</tspan></text>
    <text class="cls-1" transform="translate(102.08 72.44) rotate(-2.29)"><tspan x="0" y="0">r</tspan></text>
    <text class="cls-1" transform="translate(105.87 72.28) rotate(-.8)"><tspan x="0" y="0">a</tspan></text>
    <text class="cls-1" transform="translate(111.94 72.2) rotate(.81)"><tspan x="0" y="0">z</tspan></text>
    <text class="cls-1" transform="translate(116.92 72.26) rotate(2.32)"><tspan x="0" y="0">o</tspan></text>
    <text class="cls-1" transform="translate(123.61 72.53) rotate(3.94)"><tspan x="0" y="0">n</tspan></text>
    <text class="cls-1" transform="translate(130.03 72.98) rotate(5.36)"><tspan x="0" y="0">a</tspan></text>
    <text class="cls-1" transform="translate(136.11 73.56) rotate(6.42)"><tspan x="0" y="0">r</tspan></text>
    <text class="cls-1" transform="translate(139.43 73.93) rotate(6.87)"><tspan x="0" y="0">,</tspan></text>
    <text class="cls-1" transform="translate(140.99 74.12) rotate(7.24)"><tspan x="0" y="0"> </tspan></text>
    <text class="cls-1" transform="translate(143.17 74.38) rotate(8.02)"><tspan x="0" y="0">s</tspan></text>
    <text class="cls-1" transform="translate(149.11 75.22) rotate(9.17)"><tspan x="0" y="0">e</tspan></text>
    <text class="cls-1" transform="translate(155.51 76.25) rotate(10.28)"><tspan x="0" y="0">n</tspan></text>
    <text class="cls-1" transform="translate(161.76 77.39) rotate(11.13)"><tspan x="0" y="0">t</tspan></text>
    <text class="cls-1" transform="translate(165.98 78.23) rotate(11.65)"><tspan x="0" y="0">i</tspan></text>
    <text class="cls-1" transform="translate(168.2 78.68) rotate(12.15)"><tspan x="0" y="0">-</tspan></text>
    <text class="cls-1" transform="translate(172.51 79.6) rotate(12.96)"><tspan x="0" y="0">p</tspan></text>
    <text class="cls-1" transform="translate(179.53 81.22) rotate(13.9)"><tspan x="0" y="0">e</tspan></text>
    <text class="cls-1" transform="translate(185.83 82.78) rotate(14.74)"><tspan x="0" y="0">n</tspan></text>
    <text class="cls-1" transform="translate(192.1 84.43) rotate(15.5)"><tspan x="0" y="0">s</tspan></text>
    <text class="cls-1" transform="translate(198 86.06) rotate(16.22)"><tspan x="0" y="0">a</tspan></text>
    <text class="cls-1" transform="translate(203.88 87.78) rotate(16.79)"><tspan x="0" y="0">r</tspan></text>
  </g>
</svg>