<?xml version="1.0" encoding="UTF-8"?>
<svg id="Layer_2" data-name="Layer 2" xmlns="http://www.w3.org/2000/svg" viewBox="0 0 311.65 268.75">
  <defs>
    <style>
      .cls-1 {
        font-family: MNKYKlausTRIAL-Thin, 'MNKY Klaus TRIAL';
        font-weight: 200;
      }

      .cls-1, .cls-2 {
        font-size: 11px;
      }

      .cls-1, .cls-2, .cls-3 {
        fill: #ff9ae9;
      }

      .cls-2, .cls-3 {
        font-family: MyriadPro-Regular, 'Myriad Pro';
      }

      .cls-3 {
        font-size: 12px;
      }
    </style>
  </defs>
  <g id="Layer_1-2" data-name="Layer 1">
    <text class="cls-1" transform="translate(9.17 164.27) rotate(-54.68)"><tspan x="0" y="0">e</tspan></text>
    <text class="cls-1" transform="translate(12.9 159.02) rotate(-52.94)"><tspan x="0" y="0">s</tspan></text>
    <text class="cls-1" transform="translate(16.48 154.3) rotate(-52)"><tspan x="0" y="0"> </tspan></text>
    <text class="cls-1" transform="translate(17.8 152.59) rotate(-51.07)"><tspan x="0" y="0">e</tspan></text>
    <text class="cls-1" transform="translate(21.9 147.54) rotate(-50.16)"><tspan x="0" y="0">l</tspan></text>
    <text class="cls-1" transform="translate(23.47 145.66) rotate(-49.69)"><tspan x="0" y="0"> </tspan></text>
    <text class="cls-1" transform="translate(24.86 144) rotate(-48.78)"><tspan x="0" y="0">d</tspan></text>
    <text class="cls-1" transform="translate(29.48 138.72) rotate(-47.43)"><tspan x="0" y="0">o</tspan></text>
    <text class="cls-1" transform="translate(34.02 133.8) rotate(-46.54)"><tspan x="0" y="0">l</tspan></text>
    <text class="cls-1" transform="translate(35.68 132.02) rotate(-45.63)"><tspan x="0" y="0">o</tspan></text>
    <text class="cls-1" transform="translate(40.38 127.24) rotate(-44.56)"><tspan x="0" y="0">r</tspan></text>
    <text class="cls-1" transform="translate(43.16 124.51) rotate(-43.95)"><tspan x="0" y="0"> </tspan></text>
    <text class="cls-1" transform="translate(44.73 122.97) rotate(-42.99)"><tspan x="0" y="0">d</tspan></text>
    <text class="cls-1" transform="translate(49.84 118.21) rotate(-41.56)"><tspan x="0" y="0">e</tspan></text>
    <text class="cls-1" transform="translate(54.7 113.92) rotate(-40.61)"><tspan x="0" y="0"> </tspan></text>
    <text class="cls-1" transform="translate(56.36 112.48) rotate(-39.89)"><tspan x="0" y="0">t</tspan></text>
    <text class="cls-1" transform="translate(59.64 109.75) rotate(-38.96)"><tspan x="0" y="0">r</tspan></text>
    <text class="cls-1" transform="translate(62.57 107.36) rotate(-37.82)"><tspan x="0" y="0">a</tspan></text>
    <text class="cls-1" transform="translate(67.38 103.63) rotate(-36.36)"><tspan x="0" y="0">s</tspan></text>
    <text class="cls-1" transform="translate(72.1 100.14) rotate(-34.74)"><tspan x="0" y="0">p</tspan></text>
    <text class="cls-1" transform="translate(77.93 96.11) rotate(-32.99)"><tspan x="0" y="0">a</tspan></text>
    <text class="cls-1" transform="translate(83.03 92.79) rotate(-31.34)"><tspan x="0" y="0">s</tspan></text>
    <text class="cls-1" transform="translate(88.27 89.61) rotate(-29.55)"><tspan x="0" y="0">a</tspan></text>
    <text class="cls-1" transform="translate(93.56 86.62) rotate(-28.06)"><tspan x="0" y="0">r</tspan></text>
    <text class="cls-1" transform="translate(97.02 84.78) rotate(-27.13)"><tspan x="0" y="0"> </tspan></text>
    <text class="cls-1" transform="translate(98.93 83.77) rotate(-25.76)"><tspan x="0" y="0">e</tspan></text>
    <text class="cls-1" transform="translate(104.77 80.98) rotate(-24.32)"><tspan x="0" y="0">l</tspan></text>
    <text class="cls-1" transform="translate(106.99 79.98) rotate(-23.56)"><tspan x="0" y="0"> </tspan></text>
    <text class="cls-1" transform="translate(108.94 79.1) rotate(-22.11)"><tspan x="0" y="0">c</tspan></text>
    <text class="cls-1" transform="translate(114.86 76.69) rotate(-19.81)"><tspan x="0" y="0">o</tspan></text>
    <text class="cls-1" transform="translate(121.15 74.45) rotate(-17.88)"><tspan x="0" y="0">r</tspan></text>
    <text class="cls-1" transform="translate(124.7 73.28) rotate(-16.07)"><tspan x="0" y="0">a</tspan></text>
    <text class="cls-1" transform="translate(130.55 71.6) rotate(-13.89)"><tspan x="0" y="0">z</tspan></text>
    <text class="cls-1" transform="translate(135.37 70.39) rotate(-11.63)"><tspan x="0" y="0">o</tspan></text>
    <text class="cls-1" transform="translate(141.88 69.05) rotate(-8.97)"><tspan x="0" y="0">n</tspan></text>
    <text class="cls-1" transform="translate(148.25 68.08) rotate(-7.19)"><tspan x="0" y="0"> </tspan></text>
    <text class="cls-2" transform="translate(150.38 67.8) rotate(-6.1)"><tspan x="0" y="0">(</tspan></text>
    <text class="cls-1" transform="translate(153.43 67.44) rotate(-4.04)"><tspan x="0" y="0">o</tspan></text>
    <text class="cls-1" transform="translate(160.07 67) rotate(-1.8)"><tspan x="0" y="0">r</tspan></text>
    <text class="cls-1" transform="translate(163.96 66.89) rotate(-.51)"><tspan x="0" y="0"> </tspan></text>
    <text class="cls-1" transform="translate(166.12 66.85) rotate(.87)"><tspan x="0" y="0">t</tspan></text>
    <text class="cls-1" transform="translate(170.35 66.89) rotate(3.15)"><tspan x="0" y="0">h</tspan></text>
    <text class="cls-1" transform="translate(176.75 67.24) rotate(5.9)"><tspan x="0" y="0">e</tspan></text>
    <text class="cls-1" transform="translate(183.16 67.94) rotate(7.71)"><tspan x="0" y="0"> </tspan></text>
    <text class="cls-1" transform="translate(185.3 68.19) rotate(9.63)"><tspan x="0" y="0">p</tspan></text>
    <text class="cls-1" transform="translate(192.27 69.38) rotate(12.36)"><tspan x="0" y="0">a</tspan></text>
    <text class="cls-1" transform="translate(198.21 70.71) rotate(14.07)"><tspan x="0" y="0">i</tspan></text>
    <text class="cls-1" transform="translate(200.56 71.27) rotate(15.83)"><tspan x="0" y="0">n</tspan></text>
    <text class="cls-1" transform="translate(206.72 73.05) rotate(17.48)"><tspan x="0" y="0"> </tspan></text>
    <text class="cls-1" transform="translate(208.79 73.66) rotate(19.16)"><tspan x="0" y="0">o</tspan></text>
    <text class="cls-1" transform="translate(215.01 75.85) rotate(21.08)"><tspan x="0" y="0">f</tspan></text>
    <text class="cls-1" transform="translate(218.7 77.28) rotate(22.19)"><tspan x="0" y="0"> </tspan></text>
    <text class="cls-1" transform="translate(220.69 78.05) rotate(23.78)"><tspan x="0" y="0">p</tspan></text>
    <text class="cls-1" transform="translate(227.08 80.9) rotate(25.38)"><tspan x="0" y="0">i</tspan></text>
    <text class="cls-1" transform="translate(229.27 81.92) rotate(26.84)"><tspan x="0" y="0">e</tspan></text>
    <text class="cls-1" transform="translate(235.05 84.86) rotate(28.48)"><tspan x="0" y="0">r</tspan></text>
    <text class="cls-1" transform="translate(238.25 86.57) rotate(29.97)"><tspan x="0" y="0">c</tspan></text>
    <text class="cls-1" transform="translate(243.78 89.78) rotate(31.26)"><tspan x="0" y="0">i</tspan></text>
    <text class="cls-1" transform="translate(245.87 91.03) rotate(32.52)"><tspan x="0" y="0">n</tspan></text>
    <text class="cls-1" transform="translate(251.28 94.47) rotate(34.34)"><tspan x="0" y="0">g</tspan></text>
    <text class="cls-1" transform="translate(257.08 98.47) rotate(35.53)"><tspan x="0" y="0"> </tspan></text>
    <text class="cls-1" transform="translate(258.85 99.72) rotate(36.34)"><tspan x="0" y="0">t</tspan></text>
    <text class="cls-1" transform="translate(262.28 102.23) rotate(37.63)"><tspan x="0" y="0">h</tspan></text>
    <text class="cls-1" transform="translate(267.38 106.16) rotate(39.12)"><tspan x="0" y="0">e</tspan></text>
    <text class="cls-1" transform="translate(272.41 110.28) rotate(40.08)"><tspan x="0" y="0"> </tspan></text>
    <text class="cls-1" transform="translate(274.07 111.65) rotate(40.99)"><tspan x="0" y="0">h</tspan></text>
    <text class="cls-1" transform="translate(278.95 115.89) rotate(42.31)"><tspan x="0" y="0">e</tspan></text>
    <text class="cls-1" transform="translate(283.73 120.25) rotate(43.52)"><tspan x="0" y="0">a</tspan></text>
    <text class="cls-1" transform="translate(288.17 124.47) rotate(44.45)"><tspan x="0" y="0">r</tspan></text>
    <text class="cls-1" transform="translate(291.03 127.28) rotate(45.19)"><tspan x="0" y="0">t</tspan></text>
    <text class="cls-3" transform="translate(294.06 130.33) rotate(45.85)"><tspan x="0" y="0">)</tspan></text>
  </g>
</svg>