<?xml version="1.0" encoding="UTF-8"?>
<svg id="Layer_2" data-name="Layer 2" xmlns="http://www.w3.org/2000/svg" viewBox="0 0 556.68 237.65">
  <defs>
    <style>
      .cls-1 {
        fill: #ff9ae9;
        font-family: MNKYKlausTRIAL-Thin, 'MNKY Klaus TRIAL';
        font-size: 11px;
        font-weight: 200;
      }
    </style>
  </defs>
  <g id="Layer_1-2" data-name="Layer 1">
    <text class="cls-1" transform="translate(17.75 116.33) rotate(29.97)"><tspan x="0" y="0">i</tspan></text>
    <text class="cls-1" transform="translate(19.88 117.56) rotate(29.45)"><tspan x="0" y="0">t</tspan></text>
    <text class="cls-1" transform="translate(23.61 119.66) rotate(28.96)"><tspan x="0" y="0"> </tspan></text>
    <text class="cls-1" transform="translate(25.52 120.72) rotate(28.62)"><tspan x="0" y="0">i</tspan></text>
    <text class="cls-1" transform="translate(27.68 121.91) rotate(28.02)"><tspan x="0" y="0">s</tspan></text>
    <text class="cls-1" transform="translate(32.89 124.67) rotate(27.45)"><tspan x="0" y="0"> </tspan></text>
    <text class="cls-1" transform="translate(34.84 125.68) rotate(27.13)"><tspan x="0" y="0">l</tspan></text>
    <text class="cls-1" transform="translate(37.02 126.81) rotate(26.52)"><tspan x="0" y="0">e</tspan></text>
    <text class="cls-1" transform="translate(42.85 129.72) rotate(25.66)"><tspan x="0" y="0">a</tspan></text>
    <text class="cls-1" transform="translate(48.37 132.37) rotate(25)"><tspan x="0" y="0">r</tspan></text>
    <text class="cls-1" transform="translate(51.91 134.02) rotate(24.31)"><tspan x="0" y="0">n</tspan></text>
    <text class="cls-1" transform="translate(57.82 136.69) rotate(23.72)"><tspan x="0" y="0">i</tspan></text>
    <text class="cls-1" transform="translate(60.04 137.67) rotate(23.13)"><tspan x="0" y="0">n</tspan></text>
    <text class="cls-1" transform="translate(66 140.22) rotate(22.24)"><tspan x="0" y="0">g</tspan></text>
    <text class="cls-1" transform="translate(72.51 142.87) rotate(21.63)"><tspan x="0" y="0"> </tspan></text>
    <text class="cls-1" transform="translate(74.53 143.67) rotate(21.23)"><tspan x="0" y="0">f</tspan></text>
    <text class="cls-1" transform="translate(78.25 145.12) rotate(20.7)"><tspan x="0" y="0">r</tspan></text>
    <text class="cls-1" transform="translate(81.66 146.42) rotate(20.03)"><tspan x="0" y="0">o</tspan></text>
    <text class="cls-1" transform="translate(87.95 148.73) rotate(18.91)"><tspan x="0" y="0">m</tspan></text>
    <text class="cls-1" transform="translate(97.55 151.99) rotate(18.07)"><tspan x="0" y="0"> </tspan></text>
    <text class="cls-1" transform="translate(99.62 152.67) rotate(17.66)"><tspan x="0" y="0">r</tspan></text>
    <text class="cls-1" transform="translate(103.11 153.79) rotate(16.98)"><tspan x="0" y="0">e</tspan></text>
    <text class="cls-1" transform="translate(109.33 155.69) rotate(16.05)"><tspan x="0" y="0">p</tspan></text>
    <text class="cls-1" transform="translate(116.26 157.68) rotate(15.08)"><tspan x="0" y="0">e</tspan></text>
    <text class="cls-1" transform="translate(122.53 159.37) rotate(14.19)"><tspan x="0" y="0">a</tspan></text>
    <text class="cls-1" transform="translate(128.36 160.84) rotate(13.46)"><tspan x="0" y="0">t</tspan></text>
    <text class="cls-1" transform="translate(132.33 161.8) rotate(12.72)"><tspan x="0" y="0">e</tspan></text>
    <text class="cls-1" transform="translate(138.77 163.25) rotate(11.72)"><tspan x="0" y="0">d</tspan></text>
    <text class="cls-1" transform="translate(145.68 164.67) rotate(11.04)"><tspan x="0" y="0"> </tspan></text>
    <text class="cls-1" transform="translate(147.78 165.11) rotate(10.12)"><tspan x="0" y="0">m</tspan></text>
    <text class="cls-1" transform="translate(157.78 166.87) rotate(9.18)"><tspan x="0" y="0">i</tspan></text>
    <text class="cls-1" transform="translate(160.2 167.27) rotate(8.54)"><tspan x="0" y="0">s</tspan></text>
    <text class="cls-1" transform="translate(166.05 168.14) rotate(7.76)"><tspan x="0" y="0">t</tspan></text>
    <text class="cls-1" transform="translate(170.29 168.72) rotate(6.96)"><tspan x="0" y="0">a</tspan></text>
    <text class="cls-1" transform="translate(176.37 169.47) rotate(6)"><tspan x="0" y="0">k</tspan></text>
    <text class="cls-1" transform="translate(182.21 170.08) rotate(5.04)"><tspan x="0" y="0">e</tspan></text>
    <text class="cls-1" transform="translate(188.69 170.65) rotate(4.05)"><tspan x="0" y="0">s</tspan></text>
    <text class="cls-1" transform="translate(194.6 171.06) rotate(3.4)"><tspan x="0" y="0"> </tspan></text>
    <text class="cls-1" transform="translate(196.77 171.19) rotate(3.03)"><tspan x="0" y="0">i</tspan></text>
    <text class="cls-1" transform="translate(199.24 171.33) rotate(2.3)"><tspan x="0" y="0">n</tspan></text>
    <text class="cls-1" transform="translate(205.7 171.58) rotate(1.59)"><tspan x="0" y="0"> </tspan></text>
    <text class="cls-1" transform="translate(207.88 171.66) rotate(.86)"><tspan x="0" y="0">o</tspan></text>
    <text class="cls-1" transform="translate(214.56 171.75) rotate(-.02)"><tspan x="0" y="0">r</tspan></text>
    <text class="cls-1" transform="translate(218.24 171.76) rotate(-.89)"><tspan x="0" y="0">d</tspan></text>
    <text class="cls-1" transform="translate(225.25 171.65) rotate(-2.03)"><tspan x="0" y="0">e</tspan></text>
    <text class="cls-1" transform="translate(231.72 171.41) rotate(-2.91)"><tspan x="0" y="0">r</tspan></text>
    <text class="cls-1" transform="translate(235.66 171.2) rotate(-3.43)"><tspan x="0" y="0"> </tspan></text>
    <text class="cls-1" transform="translate(237.85 171.08) rotate(-3.99)"><tspan x="0" y="0">t</tspan></text>
    <text class="cls-1" transform="translate(241.88 170.81) rotate(-4.89)"><tspan x="0" y="0">o</tspan></text>
    <text class="cls-1" transform="translate(248.58 170.22) rotate(-5.66)"><tspan x="0" y="0"> </tspan></text>
    <text class="cls-1" transform="translate(250.75 170.02) rotate(-6.43)"><tspan x="0" y="0">o</tspan></text>
    <text class="cls-1" transform="translate(257.41 169.27) rotate(-7.57)"><tspan x="0" y="0">n</tspan></text>
    <text class="cls-1" transform="translate(263.81 168.41) rotate(-8.35)"><tspan x="0" y="0">l</tspan></text>
    <text class="cls-1" transform="translate(266.24 168.06) rotate(-9.1)"><tspan x="0" y="0">y</tspan></text>
    <text class="cls-1" transform="translate(272.3 167.08) rotate(-9.83)"><tspan x="0" y="0"> </tspan></text>
    <text class="cls-1" transform="translate(274.44 166.75) rotate(-10.9)"><tspan x="0" y="0">m</tspan></text>
    <text class="cls-1" transform="translate(284.39 164.81) rotate(-12.33)"><tspan x="0" y="0">a</tspan></text>
    <text class="cls-1" transform="translate(290.34 163.5) rotate(-13.4)"><tspan x="0" y="0">k</tspan></text>
    <text class="cls-1" transform="translate(296.08 162.14) rotate(-14.46)"><tspan x="0" y="0">e</tspan></text>
    <text class="cls-1" transform="translate(302.37 160.51) rotate(-15.22)"><tspan x="0" y="0"> </tspan></text>
    <text class="cls-1" transform="translate(304.48 159.94) rotate(-15.98)"><tspan x="0" y="0">n</tspan></text>
    <text class="cls-1" transform="translate(310.68 158.17) rotate(-17.11)"><tspan x="0" y="0">e</tspan></text>
    <text class="cls-1" transform="translate(316.81 156.31) rotate(-18.48)"><tspan x="0" y="0">w</tspan></text>
    <text class="cls-1" transform="translate(325.77 153.29) rotate(-19.8)"><tspan x="0" y="0">s</tspan></text>
    <text class="cls-1" transform="translate(331.33 151.28) rotate(-20.49)"><tspan x="0" y="0"> </tspan></text>
    <text class="cls-1" transform="translate(333.39 150.52) rotate(-21.26)"><tspan x="0" y="0">o</tspan></text>
    <text class="cls-1" transform="translate(339.63 148.09) rotate(-22.37)"><tspan x="0" y="0">n</tspan></text>
    <text class="cls-1" transform="translate(345.59 145.64) rotate(-23.46)"><tspan x="0" y="0">e</tspan></text>
    <text class="cls-1" transform="translate(351.56 143.04) rotate(-24.49)"><tspan x="0" y="0">s</tspan></text>
    <text class="cls-1" transform="translate(356.93 140.59) rotate(-25.16)"><tspan x="0" y="0"> </tspan></text>
    <text class="cls-1" transform="translate(358.92 139.65) rotate(-25.54)"><tspan x="0" y="0">i</tspan></text>
    <text class="cls-1" transform="translate(361.14 138.57) rotate(-25.69)"><tspan x="0" y="0">n</tspan></text>
    <text class="cls-1" transform="translate(367.03 135.68) rotate(-26.73)"><tspan x="0" y="0"> </tspan><tspan x="2.21" y="0">t</tspan></text>
    <text class="cls-1" transform="translate(372.85 132.75) rotate(-26.73)"><tspan x="0" y="0">h</tspan></text>
    <text class="cls-1" transform="translate(378.63 129.84) rotate(-26.73)"><tspan x="0" y="0">e</tspan></text>
    <text class="cls-1" transform="translate(384.46 126.91) rotate(-26.73)"><tspan x="0" y="0"> </tspan></text>
    <text class="cls-1" transform="translate(386.44 125.91) rotate(-26.73)"><tspan x="0" y="0">f</tspan></text>
    <text class="cls-1" transform="translate(389.98 124.12) rotate(-26.73)"><tspan x="0" y="0">u</tspan></text>
    <text class="cls-1" transform="translate(395.75 121.22) rotate(-26.73)"><tspan x="0" y="0">t</tspan></text>
    <text class="cls-1" transform="translate(399.59 119.29) rotate(-26.73)"><tspan x="0" y="0">u</tspan></text>
    <text class="cls-1" transform="translate(405.36 116.38) rotate(-26.73)"><tspan x="0" y="0">r</tspan></text>
    <text class="cls-1" transform="translate(408.64 114.73) rotate(-26.73)"><tspan x="0" y="0">e</tspan></text>
    <text class="cls-1" transform="translate(414.46 111.8) rotate(-26.73)"><tspan x="0" y="0"> </tspan></text>
  </g>
</svg>