<?xml version="1.0" encoding="UTF-8"?>
<svg id="Layer_2" data-name="Layer 2" xmlns="http://www.w3.org/2000/svg" viewBox="0 0 262.87 259.33">
  <defs>
    <style>
      .cls-1 {
        fill: #ff9ae9;
        font-family: MNKYKlausTRIAL-Thin, 'MNKY Klaus TRIAL';
        font-size: 11px;
        font-weight: 200;
      }
    </style>
  </defs>
  <g id="Layer_1-2" data-name="Layer 1">
    <text class="cls-1" transform="translate(5.14 129.55) rotate(48.46)"><tspan x="0" y="0">i</tspan></text>
    <text class="cls-1" transform="translate(6.77 131.39) rotate(47.68)"><tspan x="0" y="0">t</tspan></text>
    <text class="cls-1" transform="translate(9.65 134.54) rotate(47.12)"><tspan x="0" y="0"> </tspan></text>
    <text class="cls-1" transform="translate(11.13 136.14) rotate(46.77)"><tspan x="0" y="0">i</tspan></text>
    <text class="cls-1" transform="translate(12.81 137.94) rotate(46.17)"><tspan x="0" y="0">s</tspan></text>
    <text class="cls-1" transform="translate(16.92 142.21) rotate(45.63)"><tspan x="0" y="0"> </tspan></text>
    <text class="cls-1" transform="translate(18.44 143.78) rotate(45.07)"><tspan x="0" y="0">n</tspan></text>
    <text class="cls-1" transform="translate(23.01 148.36) rotate(44.23)"><tspan x="0" y="0">o</tspan></text>
    <text class="cls-1" transform="translate(27.75 152.96) rotate(43.55)"><tspan x="0" y="0">t</tspan></text>
    <text class="cls-1" transform="translate(30.86 155.91) rotate(43.13)"><tspan x="0" y="0"> </tspan></text>
    <text class="cls-1" transform="translate(32.44 157.41) rotate(42.6)"><tspan x="0" y="0">a</tspan></text>
    <text class="cls-1" transform="translate(36.94 161.56) rotate(41.73)"><tspan x="0" y="0">b</tspan></text>
    <text class="cls-1" transform="translate(42.32 166.35) rotate(40.76)"><tspan x="0" y="0">o</tspan></text>
    <text class="cls-1" transform="translate(47.4 170.73) rotate(39.81)"><tspan x="0" y="0">u</tspan></text>
    <text class="cls-1" transform="translate(52.32 174.82) rotate(39.01)"><tspan x="0" y="0">t</tspan></text>
    <text class="cls-1" transform="translate(55.66 177.52) rotate(38.5)"><tspan x="0" y="0"> </tspan></text>
    <text class="cls-1" transform="translate(57.37 178.9) rotate(37.75)"><tspan x="0" y="0">b</tspan></text>
    <text class="cls-1" transform="translate(63.06 183.3) rotate(36.55)"><tspan x="0" y="0">e</tspan></text>
    <text class="cls-1" transform="translate(68.29 187.15) rotate(35.74)"><tspan x="0" y="0">l</tspan></text>
    <text class="cls-1" transform="translate(70.25 188.59) rotate(34.86)"><tspan x="0" y="0">o</tspan></text>
    <text class="cls-1" transform="translate(75.74 192.42) rotate(33.51)"><tspan x="0" y="0">n</tspan></text>
    <text class="cls-1" transform="translate(81.13 195.99) rotate(32)"><tspan x="0" y="0">g</tspan></text>
    <text class="cls-1" transform="translate(87.08 199.68) rotate(30.87)"><tspan x="0" y="0">i</tspan></text>
    <text class="cls-1" transform="translate(89.16 200.95) rotate(29.72)"><tspan x="0" y="0">n</tspan></text>
    <text class="cls-1" transform="translate(94.74 204.14) rotate(27.85)"><tspan x="0" y="0">g</tspan></text>
    <text class="cls-1" transform="translate(100.97 207.4) rotate(26.45)"><tspan x="0" y="0"> </tspan></text>
    <text class="cls-1" transform="translate(102.97 208.4) rotate(25.68)"><tspan x="0" y="0">i</tspan></text>
    <text class="cls-1" transform="translate(105.29 209.52) rotate(24.5)"><tspan x="0" y="0">t</tspan></text>
    <text class="cls-1" transform="translate(109.28 211.33) rotate(23.31)"><tspan x="0" y="0"> </tspan></text>
    <text class="cls-1" transform="translate(111.36 212.23) rotate(22.41)"><tspan x="0" y="0">i</tspan></text>
    <text class="cls-1" transform="translate(113.79 213.25) rotate(20.67)"><tspan x="0" y="0">s</tspan></text>
    <text class="cls-1" transform="translate(119.47 215.37) rotate(18.86)"><tspan x="0" y="0"> </tspan></text>
    <text class="cls-1" transform="translate(121.7 216.16) rotate(16.85)"><tspan x="0" y="0">a</tspan></text>
    <text class="cls-1" transform="translate(127.84 218.03) rotate(13.3)"><tspan x="0" y="0">b</tspan></text>
    <text class="cls-1" transform="translate(135.25 219.76) rotate(8.9)"><tspan x="0" y="0">o</tspan></text>
    <text class="cls-1" transform="translate(142.25 220.84) rotate(4.23)"><tspan x="0" y="0">u</tspan></text>
    <text class="cls-1" transform="translate(149.03 221.29) rotate(-.06)"><tspan x="0" y="0">t</tspan></text>
    <text class="cls-1" transform="translate(153.55 221.26) rotate(-2.86)"><tspan x="0" y="0"> </tspan></text>
    <text class="cls-1" transform="translate(156.12 221.21) rotate(-7.12)"><tspan x="0" y="0">b</tspan></text>
    <text class="cls-1" transform="translate(163.82 220.19) rotate(-13.98)"><tspan x="0" y="0">e</tspan></text>
    <text class="cls-1" transform="translate(170.49 218.43) rotate(-18.62)"><tspan x="0" y="0">i</tspan></text>
    <text class="cls-1" transform="translate(173.21 217.59) rotate(-23.3)"><tspan x="0" y="0">n</tspan></text>
    <text class="cls-1" transform="translate(179.67 214.78) rotate(-30.28)"><tspan x="0" y="0">g</tspan></text>
    <text class="cls-1" transform="translate(186.01 210.95) rotate(-34.82)"><tspan x="0" y="0"> </tspan></text>
    <text class="cls-1" transform="translate(188.29 209.55) rotate(-40.24)"><tspan x="0" y="0">w</tspan></text>
    <text class="cls-1" transform="translate(195.84 202.99) rotate(-46.81)"><tspan x="0" y="0">h</tspan></text>
    <text class="cls-1" transform="translate(200.52 197.98) rotate(-51.53)"><tspan x="0" y="0">o</tspan></text>
    <text class="cls-1" transform="translate(204.81 192.48) rotate(-54.46)"><tspan x="0" y="0">l</tspan></text>
    <text class="cls-1" transform="translate(206.41 190.31) rotate(-57.08)"><tspan x="0" y="0">e</tspan></text>
    <text class="cls-1" transform="translate(209.95 184.73) rotate(-58.61)"><tspan x="0" y="0"> </tspan></text>
    <text class="cls-1" transform="translate(211.22 182.68) rotate(-61.17)"><tspan x="0" y="0">w</tspan></text>
    <text class="cls-1" transform="translate(215.75 174.39) rotate(-62.33)"><tspan x="0" y="0">i</tspan></text>
    <text class="cls-1" transform="translate(216.89 172.22) rotate(-63.07)"><tspan x="0" y="0">t</tspan></text>
    <text class="cls-1" transform="translate(218.83 168.44) rotate(-64.36)"><tspan x="0" y="0">h</tspan></text>
    <text class="cls-1" transform="translate(221.6 162.61) rotate(-65.52)"><tspan x="0" y="0"> </tspan></text>
    <text class="cls-1" transform="translate(222.51 160.63) rotate(-66.46)"><tspan x="0" y="0">t</tspan></text>
    <text class="cls-1" transform="translate(224.28 156.62) rotate(-68.24)"><tspan x="0" y="0">h</tspan></text>
    <text class="cls-1" transform="translate(226.75 150.43) rotate(-70.79)"><tspan x="0" y="0">e</tspan></text>
    <text class="cls-1" transform="translate(228.92 144.08) rotate(-72.83)"><tspan x="0" y="0"> </tspan></text>
    <text class="cls-1" transform="translate(229.74 141.77) rotate(-76.03)"><tspan x="0" y="0">w</tspan></text>
    <text class="cls-1" transform="translate(232.07 132.1) rotate(-81.73)"><tspan x="0" y="0">h</tspan></text>
    <text class="cls-1" transform="translate(233.07 125.16) rotate(-88.13)"><tspan x="0" y="0">o</tspan></text>
    <text class="cls-1" transform="translate(233.18 117.95) rotate(-93.89)"><tspan x="0" y="0">l</tspan></text>
    <text class="cls-1" transform="translate(233.08 114.95) rotate(-100.83)"><tspan x="0" y="0">e</tspan></text>
    <text class="cls-1" transform="translate(231.54 107.93) rotate(-109.08)"><tspan x="0" y="0"> </tspan></text>
    <text class="cls-1" transform="translate(230.66 105.11) rotate(-118.07)"><tspan x="0" y="0">s</tspan></text>
    <text class="cls-1" transform="translate(227.2 98.87) rotate(-132.81)"><tspan x="0" y="0">h</tspan></text>
    <text class="cls-1" transform="translate(221.9 93.41) rotate(-146.49)"><tspan x="0" y="0">a</tspan></text>
    <text class="cls-1" transform="translate(215.98 89.58) rotate(-157.67)"><tspan x="0" y="0">b</tspan></text>
    <text class="cls-1" transform="translate(208.69 86.71) rotate(-166.14)"><tspan x="0" y="0">a</tspan></text>
    <text class="cls-1" transform="translate(202.24 85.15) rotate(-172.26)"><tspan x="0" y="0">n</tspan></text>
    <text class="cls-1" transform="translate(195.39 84.24) rotate(-177.53)"><tspan x="0" y="0">g</tspan></text>
  </g>
</svg>