<?xml version="1.0" encoding="UTF-8"?>
<svg id="Layer_2" data-name="Layer 2" xmlns="http://www.w3.org/2000/svg" viewBox="0 0 266.9 201.83">
  <defs>
    <style>
      .cls-1 {
        fill: #ff9ae9;
        font-family: MNKYKlausTRIAL-Thin, 'MNKY Klaus TRIAL';
        font-size: 11px;
        font-weight: 200;
      }
    </style>
  </defs>
  <g id="Layer_1-2" data-name="Layer 1">
    <text class="cls-1" transform="translate(22.84 91.06) rotate(-61.05)"><tspan x="0" y="0">i</tspan></text>
    <text class="cls-1" transform="translate(24.02 88.93) rotate(-60.28)"><tspan x="0" y="0">t</tspan></text>
    <text class="cls-1" transform="translate(26.14 85.22) rotate(-59.57)"><tspan x="0" y="0"> </tspan></text>
    <text class="cls-1" transform="translate(27.24 83.34) rotate(-59.08)"><tspan x="0" y="0">i</tspan></text>
    <text class="cls-1" transform="translate(28.49 81.23) rotate(-58.18)"><tspan x="0" y="0">s</tspan></text>
    <text class="cls-1" transform="translate(31.62 76.21) rotate(-57.3)"><tspan x="0" y="0"> </tspan></text>
    <text class="cls-1" transform="translate(32.77 74.38) rotate(-56.32)"><tspan x="0" y="0">n</tspan></text>
    <text class="cls-1" transform="translate(36.34 69.03) rotate(-54.75)"><tspan x="0" y="0">e</tspan></text>
    <text class="cls-1" transform="translate(40.1 63.74) rotate(-53.56)"><tspan x="0" y="0">i</tspan></text>
    <text class="cls-1" transform="translate(41.55 61.77) rotate(-52.59)"><tspan x="0" y="0">t</tspan></text>
    <text class="cls-1" transform="translate(44.12 58.38) rotate(-50.91)"><tspan x="0" y="0">h</tspan></text>
    <text class="cls-1" transform="translate(48.15 53.4) rotate(-48.58)"><tspan x="0" y="0">e</tspan></text>
    <text class="cls-1" transform="translate(52.44 48.57) rotate(-46.4)"><tspan x="0" y="0">r</tspan></text>
    <text class="cls-1" transform="translate(55.12 45.77) rotate(-44.96)"><tspan x="0" y="0"> </tspan></text>
    <text class="cls-1" transform="translate(56.52 44.19) rotate(-41.58)"><tspan x="0" y="0">m</tspan></text>
    <text class="cls-1" transform="translate(64.04 37.6) rotate(-35.68)"><tspan x="0" y="0">e</tspan></text>
    <text class="cls-1" transform="translate(69.29 33.92) rotate(-31.75)"><tspan x="0" y="0"> </tspan></text>
    <text class="cls-1" transform="translate(70.97 32.76) rotate(-27.09)"><tspan x="0" y="0">n</tspan></text>
    <text class="cls-1" transform="translate(76.49 29.87) rotate(-18.11)"><tspan x="0" y="0">o</tspan></text>
    <text class="cls-1" transform="translate(82.64 27.94) rotate(-8.98)"><tspan x="0" y="0">r</tspan></text>
    <text class="cls-1" transform="translate(86.35 27.39) rotate(-2.98)"><tspan x="0" y="0"> </tspan></text>
    <text class="cls-1" transform="translate(88.29 27.12) rotate(5.82)"><tspan x="0" y="0">y</tspan></text>
    <text class="cls-1" transform="translate(93.91 27.6) rotate(19.39)"><tspan x="0" y="0">o</tspan></text>
    <text class="cls-1" transform="translate(99.9 29.7) rotate(32.09)"><tspan x="0" y="0">u</tspan></text>
    <text class="cls-1" transform="translate(105.11 33.13) rotate(38.63)"><tspan x="0" y="0">,</tspan></text>
    <text class="cls-1" transform="translate(106.31 34.07) rotate(41.4)"><tspan x="0" y="0"> </tspan></text>
    <text class="cls-1" transform="translate(107.88 35.44) rotate(44.46)"><tspan x="0" y="0">i</tspan></text>
    <text class="cls-1" transform="translate(109.58 37.07) rotate(48.44)"><tspan x="0" y="0">t</tspan></text>
    <text class="cls-1" transform="translate(112.33 40.22) rotate(51.74)"><tspan x="0" y="0"> </tspan></text>
    <text class="cls-1" transform="translate(113.66 41.9) rotate(53.85)"><tspan x="0" y="0">i</tspan></text>
    <text class="cls-1" transform="translate(115.1 43.78) rotate(57.17)"><tspan x="0" y="0">s</tspan></text>
    <text class="cls-1" transform="translate(118.24 48.73) rotate(59.92)"><tspan x="0" y="0"> </tspan></text>
    <text class="cls-1" transform="translate(119.38 50.48) rotate(63.37)"><tspan x="0" y="0">m</tspan></text>
    <text class="cls-1" transform="translate(123.83 59.48) rotate(67.03)"><tspan x="0" y="0">e</tspan></text>
    <text class="cls-1" transform="translate(126.35 65.44) rotate(69.32)"><tspan x="0" y="0">n</tspan></text>
    <text class="cls-1" transform="translate(128.6 71.48) rotate(70.64)"><tspan x="0" y="0"> </tspan></text>
    <text class="cls-1" transform="translate(129.33 73.51) rotate(71.77)"><tspan x="0" y="0">a</tspan></text>
    <text class="cls-1" transform="translate(131.24 79.29) rotate(73.29)"><tspan x="0" y="0">n</tspan></text>
    <text class="cls-1" transform="translate(133.06 85.51) rotate(73.98)"><tspan x="0" y="0">d</tspan></text>
    <text class="cls-1" transform="translate(134.96 92.28) rotate(73.82)"><tspan x="0" y="0"> </tspan></text>
    <text class="cls-1" transform="translate(135.54 94.36) rotate(72.89)"><tspan x="0" y="0">y</tspan></text>
    <text class="cls-1" transform="translate(137.29 100.08) rotate(71.06)"><tspan x="0" y="0">o</tspan></text>
    <text class="cls-1" transform="translate(139.54 106.64) rotate(68.74)"><tspan x="0" y="0">u</tspan></text>
    <text class="cls-1" transform="translate(141.96 112.74) rotate(67.1)"><tspan x="0" y="0">,</tspan></text>
    <text class="cls-1" transform="translate(142.6 114.26) rotate(66.26)"><tspan x="0" y="0"> </tspan></text>
    <text class="cls-1" transform="translate(143.49 116.55) rotate(63.11)"><tspan x="0" y="0">m</tspan></text>
    <text class="cls-1" transform="translate(148.36 125.97) rotate(57.62)"><tspan x="0" y="0">e</tspan></text>
    <text class="cls-1" transform="translate(152.08 131.7) rotate(53.93)"><tspan x="0" y="0"> </tspan></text>
    <text class="cls-1" transform="translate(153.48 133.62) rotate(51.66)"><tspan x="0" y="0">i</tspan></text>
    <text class="cls-1" transform="translate(155.2 135.92) rotate(46.6)"><tspan x="0" y="0">n</tspan></text>
    <text class="cls-1" transform="translate(160.09 140.9) rotate(40.57)"><tspan x="0" y="0"> </tspan></text>
    <text class="cls-1" transform="translate(162.13 142.77) rotate(33.59)"><tspan x="0" y="0">y</tspan></text>
    <text class="cls-1" transform="translate(168.04 146.64) rotate(20.84)"><tspan x="0" y="0">o</tspan></text>
    <text class="cls-1" transform="translate(175.54 149.31) rotate(6.08)"><tspan x="0" y="0">u</tspan></text>
  </g>
</svg>