<?xml version="1.0" encoding="UTF-8"?>
<svg id="Layer_2" data-name="Layer 2" xmlns="http://www.w3.org/2000/svg" viewBox="0 0 144.27 139.36">
  <defs>
    <style>
      .cls-1 {
        fill: #ff9ae9;
        font-family: MNKYKlausTRIAL-Thin, 'MNKY Klaus TRIAL';
        font-size: 11px;
        font-weight: 200;
      }
    </style>
  </defs>
  <g id="Layer_1-2" data-name="Layer 1">
    <text class="cls-1" transform="translate(9.02 138.74) rotate(-71.48)"><tspan x="0" y="0">i</tspan></text>
    <text class="cls-1" transform="translate(9.79 136.42) rotate(-70.58)"><tspan x="0" y="0">t</tspan></text>
    <text class="cls-1" transform="translate(11.21 132.4) rotate(-69.94)"><tspan x="0" y="0"> </tspan></text>
    <text class="cls-1" transform="translate(11.97 130.32) rotate(-69.52)"><tspan x="0" y="0">i</tspan></text>
    <text class="cls-1" transform="translate(12.81 128.04) rotate(-68.82)"><tspan x="0" y="0">s</tspan></text>
    <text class="cls-1" transform="translate(14.97 122.51) rotate(-68.18)"><tspan x="0" y="0"> </tspan></text>
    <text class="cls-1" transform="translate(15.76 120.5) rotate(-67.52)"><tspan x="0" y="0">n</tspan></text>
    <text class="cls-1" transform="translate(18.23 114.53) rotate(-66.52)"><tspan x="0" y="0">o</tspan></text>
    <text class="cls-1" transform="translate(20.85 108.51) rotate(-65.7)"><tspan x="0" y="0">t</tspan></text>
    <text class="cls-1" transform="translate(22.62 104.6) rotate(-65.19)"><tspan x="0" y="0"> </tspan></text>
    <text class="cls-1" transform="translate(23.53 102.6) rotate(-64.51)"><tspan x="0" y="0">e</tspan></text>
    <text class="cls-1" transform="translate(26.34 96.75) rotate(-63.78)"><tspan x="0" y="0">i</tspan></text>
    <text class="cls-1" transform="translate(27.42 94.55) rotate(-63.22)"><tspan x="0" y="0">t</tspan></text>
    <text class="cls-1" transform="translate(29.33 90.73) rotate(-62.29)"><tspan x="0" y="0">h</tspan></text>
    <text class="cls-1" transform="translate(32.33 85.02) rotate(-61.11)"><tspan x="0" y="0">e</tspan></text>
    <text class="cls-1" transform="translate(35.47 79.35) rotate(-60.11)"><tspan x="0" y="0">r</tspan></text>
    <text class="cls-1" transform="translate(37.42 75.96) rotate(-59.5)"><tspan x="0" y="0"> </tspan></text>
    <text class="cls-1" transform="translate(38.51 74.07) rotate(-58.57)"><tspan x="0" y="0">o</tspan></text>
    <text class="cls-1" transform="translate(42.02 68.36) rotate(-57.39)"><tspan x="0" y="0">r</tspan></text>
    <text class="cls-1" transform="translate(43.82 65.55) rotate(-56.89)"><tspan x="0" y="0">,</tspan></text>
    <text class="cls-1" transform="translate(44.68 64.23) rotate(-56.44)"><tspan x="0" y="0"> </tspan></text>
    <text class="cls-1" transform="translate(45.86 62.41) rotate(-55.29)"><tspan x="0" y="0">b</tspan></text>
    <text class="cls-1" transform="translate(49.83 56.68) rotate(-53.49)"><tspan x="0" y="0">u</tspan></text>
    <text class="cls-1" transform="translate(53.65 51.54) rotate(-51.92)"><tspan x="0" y="0">t</tspan></text>
    <text class="cls-1" transform="translate(56.29 48.19) rotate(-50.9)"><tspan x="0" y="0"> </tspan></text>
    <text class="cls-1" transform="translate(57.62 46.5) rotate(-49.38)"><tspan x="0" y="0">b</tspan></text>
    <text class="cls-1" transform="translate(62.29 41.06) rotate(-46.79)"><tspan x="0" y="0">o</tspan></text>
    <text class="cls-1" transform="translate(66.77 36.31) rotate(-44.6)"><tspan x="0" y="0">t</tspan></text>
    <text class="cls-1" transform="translate(69.77 33.32) rotate(-42.2)"><tspan x="0" y="0">h</tspan></text>
    <text class="cls-1" transform="translate(74.56 29.03) rotate(-40.09)"><tspan x="0" y="0"> </tspan></text>
    <text class="cls-1" transform="translate(76.16 27.63) rotate(-37.9)"><tspan x="0" y="0">a</tspan></text>
    <text class="cls-1" transform="translate(80.89 23.93) rotate(-34.27)"><tspan x="0" y="0">n</tspan></text>
    <text class="cls-1" transform="translate(86.14 20.33) rotate(-29.88)"><tspan x="0" y="0">d</tspan></text>
    <text class="cls-1" transform="translate(92.18 16.93) rotate(-26.59)"><tspan x="0" y="0"> </tspan></text>
    <text class="cls-1" transform="translate(93.95 15.85) rotate(-21.78)"><tspan x="0" y="0">m</tspan></text>
    <text class="cls-1" transform="translate(103.23 12.23) rotate(-14.56)"><tspan x="0" y="0">o</tspan></text>
    <text class="cls-1" transform="translate(109.6 10.63) rotate(-9.71)"><tspan x="0" y="0">r</tspan></text>
    <text class="cls-1" transform="translate(113.09 9.96) rotate(-5.04)"><tspan x="0" y="0">e</tspan></text>
  </g>
</svg>