<?xml version="1.0" encoding="UTF-8"?>
<svg id="Layer_2" data-name="Layer 2" xmlns="http://www.w3.org/2000/svg" viewBox="0 0 192.19 288.86">
  <defs>
    <style>
      .cls-1 {
        fill: #ff9ae9;
        font-family: MNKYKlausTRIAL-Thin, 'MNKY Klaus TRIAL';
        font-size: 11px;
        font-weight: 200;
      }
    </style>
  </defs>
  <g id="Layer_1-2" data-name="Layer 1">
    <text class="cls-1" transform="translate(6.18 76.6) rotate(-19.44)"><tspan x="0" y="0">i</tspan></text>
    <text class="cls-1" transform="translate(8.47 75.79) rotate(-18.9)"><tspan x="0" y="0">t</tspan></text>
    <text class="cls-1" transform="translate(12.53 74.4) rotate(-18.51)"><tspan x="0" y="0"> </tspan></text>
    <text class="cls-1" transform="translate(14.59 73.71) rotate(-18.26)"><tspan x="0" y="0">i</tspan></text>
    <text class="cls-1" transform="translate(16.93 72.93) rotate(-17.83)"><tspan x="0" y="0">s</tspan></text>
    <text class="cls-1" transform="translate(22.57 71.13) rotate(-17.44)"><tspan x="0" y="0"> </tspan></text>
    <text class="cls-1" transform="translate(24.68 70.46) rotate(-17.22)"><tspan x="0" y="0">l</tspan></text>
    <text class="cls-1" transform="translate(27.02 69.73) rotate(-16.8)"><tspan x="0" y="0">e</tspan></text>
    <text class="cls-1" transform="translate(33.25 67.85) rotate(-16.21)"><tspan x="0" y="0">a</tspan></text>
    <text class="cls-1" transform="translate(39.11 66.15) rotate(-15.74)"><tspan x="0" y="0">r</tspan></text>
    <text class="cls-1" transform="translate(42.89 65.08) rotate(-15.23)"><tspan x="0" y="0">n</tspan></text>
    <text class="cls-1" transform="translate(49.12 63.39) rotate(-14.78)"><tspan x="0" y="0">i</tspan></text>
    <text class="cls-1" transform="translate(51.52 62.75) rotate(-14.32)"><tspan x="0" y="0">n</tspan></text>
    <text class="cls-1" transform="translate(57.78 61.15) rotate(-13.57)"><tspan x="0" y="0">g</tspan></text>
    <text class="cls-1" transform="translate(64.62 59.51) rotate(-13.04)"><tspan x="0" y="0"> </tspan></text>
    <text class="cls-1" transform="translate(66.75 59.01) rotate(-12.64)"><tspan x="0" y="0">t</tspan></text>
    <text class="cls-1" transform="translate(70.71 58.11) rotate(-11.96)"><tspan x="0" y="0">o</tspan></text>
    <text class="cls-1" transform="translate(77.28 56.73) rotate(-11.35)"><tspan x="0" y="0"> </tspan></text>
    <text class="cls-1" transform="translate(79.4 56.29) rotate(-10.69)"><tspan x="0" y="0">b</tspan></text>
    <text class="cls-1" transform="translate(86.29 55) rotate(-9.82)"><tspan x="0" y="0">r</tspan></text>
    <text class="cls-1" transform="translate(89.89 54.37) rotate(-8.97)"><tspan x="0" y="0">e</tspan></text>
    <text class="cls-1" transform="translate(96.31 53.35) rotate(-7.78)"><tspan x="0" y="0">a</tspan></text>
    <text class="cls-1" transform="translate(102.24 52.55) rotate(-6.7)"><tspan x="0" y="0">t</tspan></text>
    <text class="cls-1" transform="translate(106.47 52.04) rotate(-5.43)"><tspan x="0" y="0">h</tspan></text>
    <text class="cls-1" transform="translate(112.89 51.45) rotate(-4.3)"><tspan x="0" y="0"> </tspan></text>
    <text class="cls-1" transform="translate(115.05 51.23) rotate(-2.56)"><tspan x="0" y="0">w</tspan></text>
    <text class="cls-1" transform="translate(124.45 50.84) rotate(.22)"><tspan x="0" y="0">a</tspan></text>
    <text class="cls-1" transform="translate(130.42 50.88) rotate(2.42)"><tspan x="0" y="0">t</tspan></text>
    <text class="cls-1" transform="translate(134.43 51.01) rotate(5.07)"><tspan x="0" y="0">e</tspan></text>
    <text class="cls-1" transform="translate(140.81 51.61) rotate(8.25)"><tspan x="0" y="0">r</tspan></text>
    <text class="cls-1" transform="translate(144.63 52.17) rotate(10.44)"><tspan x="0" y="0"> </tspan></text>
    <text class="cls-1" transform="translate(146.72 52.53) rotate(13.08)"><tspan x="0" y="0">t</tspan></text>
    <text class="cls-1" transform="translate(150.58 53.34) rotate(18.25)"><tspan x="0" y="0">o</tspan></text>
    <text class="cls-1" transform="translate(156.9 55.38) rotate(27.28)"><tspan x="0" y="0">g</tspan></text>
    <text class="cls-1" transform="translate(162.9 58.43) rotate(38.89)"><tspan x="0" y="0">e</tspan></text>
    <text class="cls-1" transform="translate(167.57 62.27) rotate(49.75)"><tspan x="0" y="0">t</tspan></text>
    <text class="cls-1" transform="translate(170.25 65.2) rotate(61.74)"><tspan x="0" y="0">h</tspan></text>
    <text class="cls-1" transform="translate(173.16 70.52) rotate(75.37)"><tspan x="0" y="0">e</tspan></text>
    <text class="cls-1" transform="translate(174.64 76.6) rotate(84.74)"><tspan x="0" y="0">r</tspan></text>
  </g>
</svg>